# Blender v2.79 (sub 0) OBJ File: 'jaw.blend'
# www.blender.org
mtllib jaw.mtl
o Cube
v -0.843117 0.281295 -1.000000
v -0.843117 -0.324001 1.000000
v -2.843117 -0.324001 1.000000
v -2.843116 0.281295 -1.000000
v -0.843116 1.000000 -0.999999
v -0.843117 0.398010 1.000001
v -2.843117 0.398010 1.000000
v -2.843117 1.000000 -1.000000
v -1.843117 0.398010 1.000000
v -0.843117 0.548508 0.500001
v -2.343117 0.398010 1.000000
v -1.343117 0.398010 1.000000
v -2.843117 0.548508 0.500000
v -1.843117 0.548508 0.500000
v -1.343117 0.548508 0.500000
v -2.343117 0.548508 0.500000
v -0.843117 0.473259 0.750001
v -2.593117 0.398010 1.000000
v -1.593117 0.398010 1.000000
v -1.843117 0.819042 0.750000
v -2.093117 0.398010 1.000000
v -1.093117 0.398010 1.000000
v -2.843117 0.473259 0.750000
v -1.343117 1.008748 0.750000
v -1.093117 0.548508 0.500000
v -1.593117 0.548508 0.500000
v -2.343117 0.473259 0.750000
v -2.093117 0.548508 0.500000
v -2.593117 0.548508 0.500000
v -2.093117 0.658534 0.750000
v -1.093117 0.918224 0.750000
v -1.593117 0.473259 0.750000
v -2.593117 0.763858 0.750000
v -0.843117 0.435634 0.875001
v -2.718117 0.398010 1.000000
v -1.718117 0.398010 1.000000
v -1.843117 0.435634 0.875000
v -2.218117 0.398010 1.000000
v -1.218117 0.398010 1.000000
v -2.843117 0.510883 0.625000
v -1.343117 0.435634 0.875000
v -0.968117 0.548508 0.500000
v -1.468117 0.548508 0.500000
v -2.343117 0.435634 0.875000
v -1.968117 0.548508 0.500000
v -2.468117 0.548508 0.500000
v -0.843117 0.510883 0.625001
v -2.468117 0.398010 1.000000
v -1.468117 0.398010 1.000000
v -1.843117 0.856667 0.625000
v -1.968117 0.398010 1.000000
v -0.968117 0.398010 1.000000
v -2.843117 0.435634 0.875000
v -1.343117 1.046372 0.625000
v -1.218117 0.548508 0.500000
v -1.718117 0.548508 0.500000
v -2.343117 0.510883 0.625000
v -2.218117 0.548508 0.500000
v -2.718117 0.548508 0.500000
v -2.093117 0.435634 0.875000
v -2.093117 0.756825 0.625000
v -1.968117 0.473259 0.750000
v -2.218117 0.719201 0.750000
v -1.093117 0.435634 0.875000
v -1.093117 0.955849 0.625000
v -0.968117 0.918224 0.750001
v -1.218117 0.473259 0.750000
v -1.593117 0.435634 0.875000
v -1.593117 0.510883 0.625000
v -1.468117 1.008748 0.750000
v -1.718117 0.819042 0.750000
v -2.593117 0.435634 0.875000
v -2.593117 0.835094 0.625000
v -2.468117 0.797470 0.750000
v -2.718117 0.473259 0.750000
v -2.718117 0.510883 0.625000
v -2.468117 0.835094 0.625000
v -2.468117 0.435634 0.875000
v -1.718117 0.856667 0.625000
v -1.468117 1.046372 0.625000
v -1.468117 0.435634 0.875000
v -1.218117 0.510883 0.625000
v -0.968117 0.955849 0.625000
v -0.968117 0.435634 0.875000
v -2.218117 0.756825 0.625000
v -1.968117 0.510883 0.625000
v -1.968117 0.435634 0.875000
v -2.218117 0.435634 0.875000
v -1.218117 0.435634 0.875000
v -1.718117 0.435634 0.875000
v -2.718117 0.435634 0.875000
v -4.567333 0.281295 -1.000000
v -4.567333 -0.324001 1.000000
v -2.567333 -0.324001 1.000000
v -2.567334 0.281295 -1.000000
v -4.567334 1.000000 -0.999999
v -4.567332 0.398010 1.000001
v -2.567333 0.398010 1.000000
v -2.567333 1.000000 -1.000000
v -3.567333 0.398010 1.000000
v -4.567333 0.548508 0.500001
v -3.067333 0.398010 1.000000
v -4.067333 0.398010 1.000000
v -2.567333 0.548508 0.500000
v -3.567333 0.548508 0.500000
v -4.067333 0.548508 0.500000
v -3.067333 0.548508 0.500000
v -4.567333 0.473259 0.750001
v -2.817333 0.398010 1.000000
v -3.817333 0.398010 1.000000
v -3.567333 0.819042 0.750000
v -3.317333 0.398010 1.000000
v -4.317332 0.398010 1.000000
v -2.567333 0.473259 0.750000
v -4.067333 1.008748 0.750000
v -4.317333 0.548508 0.500000
v -3.817333 0.548508 0.500000
v -3.067333 0.473259 0.750000
v -3.317333 0.548508 0.500000
v -2.817333 0.548508 0.500000
v -3.317333 0.658534 0.750000
v -4.317333 0.918224 0.750000
v -3.817333 0.473259 0.750000
v -2.817333 0.763858 0.750000
v -4.567332 0.435634 0.875001
v -2.692333 0.398010 1.000000
v -3.692333 0.398010 1.000000
v -3.567333 0.435634 0.875000
v -3.192333 0.398010 1.000000
v -4.192332 0.398010 1.000000
v -2.567333 0.510883 0.625000
v -4.067333 0.435634 0.875000
v -4.442333 0.548508 0.500000
v -3.942333 0.548508 0.500000
v -3.067333 0.435634 0.875000
v -3.442333 0.548508 0.500000
v -2.942333 0.548508 0.500000
v -4.567333 0.510883 0.625001
v -2.942333 0.398010 1.000000
v -3.942333 0.398010 1.000000
v -3.567333 0.856667 0.625000
v -3.442333 0.398010 1.000000
v -4.442332 0.398010 1.000000
v -2.567333 0.435634 0.875000
v -4.067333 1.046372 0.625000
v -4.192333 0.548508 0.500000
v -3.692333 0.548508 0.500000
v -3.067333 0.510883 0.625000
v -3.192333 0.548508 0.500000
v -2.692333 0.548508 0.500000
v -3.317333 0.435634 0.875000
v -3.317333 0.756825 0.625000
v -3.442333 0.473259 0.750000
v -3.192333 0.719201 0.750000
v -4.317332 0.435634 0.875000
v -4.317333 0.955849 0.625000
v -4.442333 0.918224 0.750001
v -4.192333 0.473259 0.750000
v -3.817333 0.435634 0.875000
v -3.817333 0.510883 0.625000
v -3.942333 1.008748 0.750000
v -3.692333 0.819042 0.750000
v -2.817333 0.435634 0.875000
v -2.817333 0.835094 0.625000
v -2.942333 0.797470 0.750000
v -2.692333 0.473259 0.750000
v -2.692333 0.510883 0.625000
v -2.942333 0.835094 0.625000
v -2.942333 0.435634 0.875000
v -3.692333 0.856667 0.625000
v -3.942333 1.046372 0.625000
v -3.942333 0.435634 0.875000
v -4.192333 0.510883 0.625000
v -4.442333 0.955849 0.625000
v -4.442332 0.435634 0.875000
v -3.192333 0.756825 0.625000
v -3.442333 0.510883 0.625000
v -3.442333 0.435634 0.875000
v -3.192333 0.435634 0.875000
v -4.192333 0.435634 0.875000
v -3.692333 0.435634 0.875000
v -2.692333 0.435634 0.875000
vn 0.0000 -0.9571 -0.2897
vn -0.0000 0.9576 0.2882
vn 1.0000 0.0000 0.0000
vn -0.0000 -0.0000 1.0000
vn -1.0000 -0.0000 -0.0000
vn 0.0000 0.0000 -1.0000
vn 0.8347 0.4839 0.2631
vn -0.8833 0.4489 0.1351
vn 0.9715 0.2268 0.0683
vn -0.9715 0.2268 0.0683
vn -0.1223 0.9100 0.3962
vn -0.9141 0.3717 0.1619
vn -0.6766 0.5217 -0.5196
vn 0.9276 0.3576 0.1077
vn 0.6766 0.5217 -0.5196
vn 0.0000 0.3998 -0.9166
vn 0.5668 0.4371 0.6984
vn -0.0457 0.3403 0.9392
vn 0.9356 0.3382 0.1018
vn 0.6844 0.4948 -0.5355
vn 0.0000 0.3759 -0.9267
vn 0.0000 0.2435 -0.9699
vn -0.7149 0.3338 -0.6144
vn -0.0000 0.2131 0.9770
vn -0.6301 0.2942 0.7186
vn -0.9596 0.2696 0.0811
vn -0.7060 0.3967 -0.5866
vn 0.7149 0.3338 -0.6144
vn 0.9596 0.2696 0.0811
vn 0.7060 0.3967 -0.5866
vn 0.0000 0.2934 -0.9560
vn 0.6106 0.3430 0.7138
vn 0.0000 0.2507 0.9681
vn 0.2085 0.8592 0.4671
vn 0.0000 0.5145 -0.8575
vn -0.6306 0.6410 -0.4376
vn -0.9356 0.3382 0.1018
vn -0.6844 0.4948 -0.5355
vn 0.6306 0.6410 -0.4376
vn -0.5768 0.4171 0.7024
vn 0.4565 0.6160 0.6420
vn 0.1068 0.4401 0.8916
vn -0.5172 0.5257 0.6754
vn -0.6106 0.3430 0.7138
vn 0.6301 0.2942 0.7186
vn 0.5768 0.4171 0.7024
vn -0.0000 0.3100 0.9507
vn -0.5484 0.4718 0.6904
vn -0.8347 0.4839 0.2631
vn 0.8833 0.4489 0.1351
vn 0.1223 0.9100 0.3962
vn 0.9141 0.3717 0.1619
vn -0.9276 0.3576 0.1077
vn -0.5668 0.4371 0.6984
vn 0.0457 0.3403 0.9392
vn -0.2085 0.8592 0.4671
vn -0.4565 0.6160 0.6420
vn -0.1068 0.4401 0.8916
vn 0.5172 0.5257 0.6754
vn 0.5484 0.4718 0.6904
usemtl Material
s off
f 1//1 2//1 3//1 4//1
f 91//2 53//2 7//2 35//2
f 1//3 5//3 10//3 47//3 17//3 34//3 6//3 2//3
f 2//4 6//4 52//4 22//4 39//4 12//4 49//4 19//4 36//4 9//4 51//4 21//4 38//4 11//4 48//4 18//4 35//4 7//4 3//4
f 3//5 7//5 53//5 23//5 40//5 13//5 8//5 4//5
f 5//6 1//6 4//6 8//6
f 90//2 37//2 9//2 36//2
f 89//2 41//2 12//2 39//2
f 88//2 44//2 11//2 38//2
f 87//2 60//2 21//2 51//2
f 86//7 61//7 30//7 62//7
f 85//8 57//8 27//8 63//8
f 84//2 64//2 22//2 52//2
f 83//2 65//2 31//2 66//2
f 82//9 54//9 24//9 67//9
f 81//2 68//2 19//2 49//2
f 80//10 69//10 32//10 70//10
f 79//2 50//2 20//2 71//2
f 78//2 72//2 18//2 48//2
f 77//11 73//11 33//11 74//11
f 76//2 40//2 23//2 75//2
f 73//12 76//12 75//12 33//12
f 29//13 59//13 76//13 73//13
f 59//2 13//2 40//2 76//2
f 57//14 77//14 74//14 27//14
f 16//15 46//15 77//15 57//15
f 46//16 29//16 73//16 77//16
f 44//2 78//2 48//2 11//2
f 27//17 74//17 78//17 44//17
f 74//18 33//18 72//18 78//18
f 69//19 79//19 71//19 32//19
f 26//20 56//20 79//20 69//20
f 56//21 14//21 50//21 79//21
f 54//2 80//2 70//2 24//2
f 15//22 43//22 80//22 54//22
f 43//23 26//23 69//23 80//23
f 41//2 81//2 49//2 12//2
f 24//24 70//24 81//24 41//24
f 70//25 32//25 68//25 81//25
f 5//2 8//2 13//2 59//2 29//2 46//2 16//2 58//2 28//2 45//2 14//2 56//2 26//2 43//2 15//2 55//2 25//2 42//2 10//2
f 65//26 82//26 67//26 31//26
f 25//27 55//27 82//27 65//27
f 55//28 15//28 54//28 82//28
f 47//29 83//29 66//29 17//29
f 10//30 42//30 83//30 47//30
f 42//31 25//31 65//31 83//31
f 34//2 84//2 52//2 6//2
f 17//32 66//32 84//32 34//32
f 66//33 31//33 64//33 84//33
f 61//34 85//34 63//34 30//34
f 28//35 58//35 85//35 61//35
f 58//36 16//36 57//36 85//36
f 50//37 86//37 62//37 20//37
f 14//38 45//38 86//38 50//38
f 45//39 28//39 61//39 86//39
f 37//2 87//2 51//2 9//2
f 20//40 62//40 87//40 37//40
f 62//41 30//41 60//41 87//41
f 60//2 88//2 38//2 21//2
f 30//42 63//42 88//42 60//42
f 63//43 27//43 44//43 88//43
f 64//2 89//2 39//2 22//2
f 31//44 67//44 89//44 64//44
f 67//45 24//45 41//45 89//45
f 68//2 90//2 36//2 19//2
f 32//46 71//46 90//46 68//46
f 71//47 20//47 37//47 90//47
f 72//2 91//2 35//2 18//2
f 33//48 75//48 91//48 72//48
f 75//2 23//2 53//2 91//2
f 92//1 95//1 94//1 93//1
f 182//2 126//2 98//2 144//2
f 92//5 93//5 97//5 125//5 108//5 138//5 101//5 96//5
f 93//4 94//4 98//4 126//4 109//4 139//4 102//4 129//4 112//4 142//4 100//4 127//4 110//4 140//4 103//4 130//4 113//4 143//4 97//4
f 94//3 95//3 99//3 104//3 131//3 114//3 144//3 98//3
f 96//6 99//6 95//6 92//6
f 181//2 127//2 100//2 128//2
f 180//2 130//2 103//2 132//2
f 179//2 129//2 102//2 135//2
f 178//2 142//2 112//2 151//2
f 177//49 153//49 121//49 152//49
f 176//50 154//50 118//50 148//50
f 175//2 143//2 113//2 155//2
f 174//2 157//2 122//2 156//2
f 173//10 158//10 115//10 145//10
f 172//2 140//2 110//2 159//2
f 171//9 161//9 123//9 160//9
f 170//2 162//2 111//2 141//2
f 169//2 139//2 109//2 163//2
f 168//51 165//51 124//51 164//51
f 167//2 166//2 114//2 131//2
f 164//52 124//52 166//52 167//52
f 120//15 164//15 167//15 150//15
f 150//2 167//2 131//2 104//2
f 148//53 118//53 165//53 168//53
f 107//13 148//13 168//13 137//13
f 137//16 168//16 164//16 120//16
f 135//2 102//2 139//2 169//2
f 118//54 135//54 169//54 165//54
f 165//55 169//55 163//55 124//55
f 160//37 123//37 162//37 170//37
f 117//38 160//38 170//38 147//38
f 147//21 170//21 141//21 105//21
f 145//2 115//2 161//2 171//2
f 106//22 145//22 171//22 134//22
f 134//28 171//28 160//28 117//28
f 132//2 103//2 140//2 172//2
f 115//24 132//24 172//24 161//24
f 161//45 172//45 159//45 123//45
f 96//2 101//2 133//2 116//2 146//2 106//2 134//2 117//2 147//2 105//2 136//2 119//2 149//2 107//2 137//2 120//2 150//2 104//2 99//2
f 156//29 122//29 158//29 173//29
f 116//30 156//30 173//30 146//30
f 146//23 173//23 145//23 106//23
f 138//26 108//26 157//26 174//26
f 101//27 138//27 174//27 133//27
f 133//31 174//31 156//31 116//31
f 125//2 97//2 143//2 175//2
f 108//44 125//44 175//44 157//44
f 157//33 175//33 155//33 122//33
f 152//56 121//56 154//56 176//56
f 119//35 152//35 176//35 149//35
f 149//39 176//39 148//39 107//39
f 141//19 111//19 153//19 177//19
f 105//20 141//20 177//20 136//20
f 136//36 177//36 152//36 119//36
f 128//2 100//2 142//2 178//2
f 111//46 128//46 178//46 153//46
f 153//57 178//57 151//57 121//57
f 151//2 112//2 129//2 179//2
f 121//58 151//58 179//58 154//58
f 154//59 179//59 135//59 118//59
f 155//2 113//2 130//2 180//2
f 122//32 155//32 180//32 158//32
f 158//25 180//25 132//25 115//25
f 159//2 110//2 127//2 181//2
f 123//40 159//40 181//40 162//40
f 162//47 181//47 128//47 111//47
f 163//2 109//2 126//2 182//2
f 124//60 163//60 182//60 166//60
f 166//2 182//2 144//2 114//2
