# Blender v2.79 (sub 0) OBJ File: 'ribs.blend'
# www.blender.org
mtllib ribs.mtl
o Cube
v 2.263552 1.450006 1.000000
v 0.263552 1.450006 1.000000
v 0.027902 1.450006 -1.000000
v 2.263551 3.450006 1.000001
v 0.263552 3.450006 1.000000
v 0.027902 3.450006 -1.000000
v 0.524193 1.450006 -0.788405
v 0.524193 3.450006 -0.788404
v 0.027902 1.450006 -0.544010
v 0.524193 2.450006 -0.788405
v 0.027902 3.450006 -0.544010
v 0.524193 2.950006 -0.788404
v 0.524193 1.950006 -0.788405
v 0.379186 2.700006 -0.788405
v 0.347692 3.200006 -0.788404
v 0.340457 2.200006 -0.788405
v 0.280534 1.700006 -0.788405
v 0.027902 2.450006 -1.000000
v 0.027902 2.950006 -1.000000
v 0.027902 1.950006 -1.000000
v 0.027902 3.200006 -1.000000
v 0.027902 2.200006 -1.000000
v 0.027902 2.700006 -1.000000
v 0.027902 1.700006 -1.000000
v 0.027902 2.450006 -0.544010
v 0.027902 1.950006 -0.544010
v 0.027902 2.950006 -0.544010
v 0.027902 1.700006 -0.544010
v 0.027902 2.700006 -0.544010
v 0.027902 2.200006 -0.544010
v 0.027902 3.200006 -0.544010
v 2.263552 2.450006 1.000000
v 2.263552 2.950006 1.000000
v 2.263552 1.950006 1.000000
v 2.263552 2.200006 1.000000
v 2.263552 2.700006 1.000000
v 2.263552 1.700006 1.000000
v 2.263552 3.325006 1.000000
v 2.263552 2.325006 1.000000
v 2.263552 2.825006 1.000000
v 2.263552 1.825006 1.000000
v 2.263552 3.075006 1.000000
v 2.263552 2.075006 1.000000
v 2.263552 2.575006 1.000000
v 2.263552 1.575006 1.000000
v 0.053118 1.450006 0.648669
v 0.053118 3.450006 0.648669
v 2.263551 3.450006 1.000001
v 2.263552 3.450006 0.000001
v 2.263552 1.450006 0.000000
v 2.263552 2.950006 0.000000
v 2.263552 2.450006 0.000000
v 2.263552 1.950006 0.000000
v 2.263552 2.200006 0.000000
v 2.263552 3.200006 0.000000
v 2.263552 1.700006 0.000000
v 2.263552 2.700006 0.000000
v 2.263552 2.075006 0.000000
v 2.263552 3.075006 0.000000
v 2.263552 1.575006 0.000000
v 2.263552 2.575006 0.000000
v 2.263552 2.325006 0.000000
v 2.263552 1.825006 0.000000
v 2.263552 2.825006 0.000000
v 0.263552 2.450006 1.000000
v 0.263552 1.950006 1.000000
v 0.263552 2.950006 1.000000
v 0.263552 1.700006 1.000000
v 0.263552 2.700006 1.000000
v 0.263552 2.200006 1.000000
v 0.263552 1.575006 1.000000
v 0.263552 2.575006 1.000000
v 0.263552 2.075006 1.000000
v 0.263552 3.075006 1.000000
v 0.263552 1.825006 1.000000
v 0.263552 2.825006 1.000000
v 0.263552 2.325006 1.000000
v 0.263552 3.325006 1.000000
v 0.053118 2.450006 0.648669
v 0.053118 2.950006 0.648669
v 0.053118 1.950006 0.648669
v 0.053118 3.200006 0.648669
v 0.053118 2.200006 0.648669
v 0.053118 2.700006 0.648669
v 0.053118 1.700006 0.648669
v 0.053118 2.325006 0.648669
v 0.053118 2.825006 0.648669
v 0.053118 1.825006 0.648669
v 0.053118 3.075006 0.648669
v 0.053118 2.075006 0.648669
v 0.053118 2.575006 0.648669
v 0.053118 1.575006 0.648669
v -2.263552 1.450006 1.000000
v -0.263552 1.450006 1.000000
v -0.027902 1.450006 -1.000000
v -2.263551 3.450006 1.000001
v -0.263552 3.450006 1.000000
v -0.027902 3.450006 -1.000000
v -0.524193 1.450006 -0.788405
v -0.524193 3.450006 -0.788404
v -0.027902 1.450006 -0.544010
v -0.524193 2.450006 -0.788405
v -0.027902 3.450006 -0.544010
v -0.524193 2.950006 -0.788404
v -0.524193 1.950006 -0.788405
v -0.379186 2.700006 -0.788405
v -0.347692 3.200006 -0.788404
v -0.340457 2.200006 -0.788405
v -0.280534 1.700006 -0.788405
v -0.027902 2.450006 -1.000000
v -0.027902 2.950006 -1.000000
v -0.027902 1.950006 -1.000000
v -0.027902 3.200006 -1.000000
v -0.027902 2.200006 -1.000000
v -0.027902 2.700006 -1.000000
v -0.027902 1.700006 -1.000000
v -0.027902 2.450006 -0.544010
v -0.027902 1.950006 -0.544010
v -0.027902 2.950006 -0.544010
v -0.027902 1.700006 -0.544010
v -0.027902 2.700006 -0.544010
v -0.027902 2.200006 -0.544010
v -0.027902 3.200006 -0.544010
v -2.263552 2.450006 1.000000
v -2.263552 2.950006 1.000000
v -2.263552 1.950006 1.000000
v -2.263552 2.200006 1.000000
v -2.263552 2.700006 1.000000
v -2.263552 1.700006 1.000000
v -2.263552 3.325006 1.000000
v -2.263552 2.325006 1.000000
v -2.263552 2.825006 1.000000
v -2.263552 1.825006 1.000000
v -2.263552 3.075006 1.000000
v -2.263552 2.075006 1.000000
v -2.263552 2.575006 1.000000
v -2.263552 1.575006 1.000000
v -0.053118 1.450006 0.648669
v -0.053118 3.450006 0.648669
v -2.263551 3.450006 1.000001
v -2.263552 3.450006 0.000001
v -2.263552 1.450006 0.000000
v -2.263552 2.950006 0.000000
v -2.263552 2.450006 0.000000
v -2.263552 1.950006 0.000000
v -2.263552 2.200006 0.000000
v -2.263552 3.200006 0.000000
v -2.263552 1.700006 0.000000
v -2.263552 2.700006 0.000000
v -2.263552 2.075006 0.000000
v -2.263552 3.075006 0.000000
v -2.263552 1.575006 0.000000
v -2.263552 2.575006 0.000000
v -2.263552 2.325006 0.000000
v -2.263552 1.825006 0.000000
v -2.263552 2.825006 0.000000
v -0.263552 2.450006 1.000000
v -0.263552 1.950006 1.000000
v -0.263552 2.950006 1.000000
v -0.263552 1.700006 1.000000
v -0.263552 2.700006 1.000000
v -0.263552 2.200006 1.000000
v -0.263552 1.575006 1.000000
v -0.263552 2.575006 1.000000
v -0.263552 2.075006 1.000000
v -0.263552 3.075006 1.000000
v -0.263552 1.825006 1.000000
v -0.263552 2.825006 1.000000
v -0.263552 2.325006 1.000000
v -0.263552 3.325006 1.000000
v -0.053118 2.450006 0.648669
v -0.053118 2.950006 0.648669
v -0.053118 1.950006 0.648669
v -0.053118 3.200006 0.648669
v -0.053118 2.200006 0.648669
v -0.053118 2.700006 0.648669
v -0.053118 1.700006 0.648669
v -0.053118 2.325006 0.648669
v -0.053118 2.825006 0.648669
v -0.053118 1.825006 0.648669
v -0.053118 3.075006 0.648669
v -0.053118 2.075006 0.648669
v -0.053118 2.575006 0.648669
v -0.053118 1.575006 0.648669
vn 0.4652 0.0000 -0.8852
vn -1.0000 -0.0000 -0.0000
vn -0.8579 -0.0000 0.5138
vn 0.0000 1.0000 0.0000
vn 0.0000 -1.0000 0.0000
vn 0.5188 -0.0000 0.8549
vn -0.0000 0.0000 1.0000
vn 0.0274 -0.9837 0.1777
vn 0.2816 0.0000 0.9595
vn 1.0000 -0.0000 0.0000
vn -0.2816 0.0000 -0.9595
vn 0.8579 0.0000 -0.5138
vn 0.0000 0.0000 -1.0000
vn -0.4652 0.0000 -0.8852
vn 0.8579 -0.0000 0.5138
vn -0.5188 -0.0000 0.8549
vn -0.0274 -0.9837 0.1777
vn -0.2816 0.0000 0.9595
vn 0.2816 0.0000 -0.9595
vn -0.8579 0.0000 -0.5138
usemtl Material
s off
f 3//1 24//1 20//1 22//1 18//1 23//1 19//1 21//1 6//1 8//1 15//1 12//1 14//1 10//1 16//1 13//1 17//1 7//1
f 3//2 9//2 28//2 26//2 30//2 25//2 29//2 27//2 31//2 11//2 6//2 21//2 19//2 23//2 18//2 22//2 20//2 24//2
f 75//3 88//3 85//3 68//3
f 6//4 11//4 8//4
f 3//5 7//5 9//5
f 11//6 31//6 27//6 29//6 25//6 30//6 26//6 28//6 9//6 7//6 17//6 13//6 16//6 10//6 14//6 12//6 15//6 8//6
f 5//4 48//4 49//4 47//4
f 68//7 37//7 41//7 75//7
f 38//8 78//8 82//8 55//8
f 2//5 46//5 50//5 1//5
f 50//9 60//9 92//9 46//9
f 45//10 1//10 50//10 60//10
f 2//7 1//7 45//7 71//7
f 41//10 37//10 56//10 63//10
f 88//4 75//4 41//4 63//4
f 92//5 60//5 45//5 71//5
f 68//5 85//5 56//5 37//5
f 73//7 66//7 34//7 43//7
f 90//4 73//4 43//4 58//4
f 85//11 88//11 63//11 56//11
f 46//3 2//3 71//3 92//3
f 48//10 38//10 55//10 49//10
f 78//7 38//7 48//7 5//7
f 34//10 53//10 58//10 43//10
f 90//11 58//11 53//11 81//11
f 62//11 54//11 83//11 86//11
f 39//10 35//10 54//10 62//10
f 5//3 47//3 82//3 78//3
f 42//10 33//10 51//10 59//10
f 40//2 64//2 57//2 36//2
f 44//10 32//10 52//10 61//10
f 70//7 35//7 39//7 77//7
f 62//4 86//4 77//4 39//4
f 54//5 35//5 70//5 83//5
f 81//5 53//5 34//5 66//5
f 72//3 91//3 79//3 65//3
f 84//12 87//12 76//12 69//12
f 80//12 89//12 74//12 67//12
f 49//11 55//11 82//11 47//11
f 72//7 65//7 32//7 44//7
f 40//13 36//13 69//13 76//13
f 42//7 74//7 67//7 33//7
f 59//4 89//4 74//4 42//4
f 64//5 40//5 76//5 87//5
f 61//4 91//4 72//4 44//4
f 79//11 91//11 61//11 52//11
f 64//9 87//9 84//9 57//9
f 59//11 51//11 80//11 89//11
f 51//5 33//5 67//5 80//5
f 57//4 84//4 69//4 36//4
f 32//5 65//5 79//5 52//5
f 95//14 99//14 109//14 105//14 108//14 102//14 106//14 104//14 107//14 100//14 98//14 113//14 111//14 115//14 110//14 114//14 112//14 116//14
f 95//10 116//10 112//10 114//10 110//10 115//10 111//10 113//10 98//10 103//10 123//10 119//10 121//10 117//10 122//10 118//10 120//10 101//10
f 167//15 160//15 177//15 180//15
f 98//4 100//4 103//4
f 95//5 101//5 99//5
f 103//16 100//16 107//16 104//16 106//16 102//16 108//16 105//16 109//16 99//16 101//16 120//16 118//16 122//16 117//16 121//16 119//16 123//16
f 97//4 139//4 141//4 140//4
f 160//7 167//7 133//7 129//7
f 130//17 147//17 174//17 170//17
f 94//5 93//5 142//5 138//5
f 142//18 138//18 184//18 152//18
f 137//2 152//2 142//2 93//2
f 94//7 163//7 137//7 93//7
f 133//2 155//2 148//2 129//2
f 180//4 155//4 133//4 167//4
f 184//5 163//5 137//5 152//5
f 160//5 129//5 148//5 177//5
f 165//7 135//7 126//7 158//7
f 182//4 150//4 135//4 165//4
f 177//19 148//19 155//19 180//19
f 138//15 184//15 163//15 94//15
f 140//2 141//2 147//2 130//2
f 170//7 97//7 140//7 130//7
f 126//2 135//2 150//2 145//2
f 182//19 173//19 145//19 150//19
f 154//19 178//19 175//19 146//19
f 131//2 154//2 146//2 127//2
f 97//15 170//15 174//15 139//15
f 134//2 151//2 143//2 125//2
f 132//10 128//10 149//10 156//10
f 136//2 153//2 144//2 124//2
f 162//7 169//7 131//7 127//7
f 154//4 131//4 169//4 178//4
f 146//5 175//5 162//5 127//5
f 173//5 158//5 126//5 145//5
f 164//15 157//15 171//15 183//15
f 176//20 161//20 168//20 179//20
f 172//20 159//20 166//20 181//20
f 141//19 139//19 174//19 147//19
f 164//7 136//7 124//7 157//7
f 132//13 168//13 161//13 128//13
f 134//7 125//7 159//7 166//7
f 151//4 134//4 166//4 181//4
f 156//5 179//5 168//5 132//5
f 153//4 136//4 164//4 183//4
f 171//19 144//19 153//19 183//19
f 156//18 149//18 176//18 179//18
f 151//19 181//19 172//19 143//19
f 143//5 172//5 159//5 125//5
f 149//4 128//4 161//4 176//4
f 124//5 144//5 171//5 157//5
l 38 4
l 6 15
l 3 17
l 15 21
l 12 21
l 12 19
l 14 19
l 14 23
l 10 18
l 16 22
l 13 20
l 17 20
l 16 18
l 10 23
l 13 22
l 11 15
l 12 31
l 10 29
l 16 25
l 13 30
l 7 28
l 17 26
l 13 26
l 16 30
l 10 25
l 12 27
l 14 29
l 14 27
l 15 31
l 17 28
l 7 24
l 4 5
l 130 96
l 98 107
l 95 109
l 107 113
l 104 113
l 104 111
l 106 111
l 106 115
l 102 110
l 108 114
l 105 112
l 109 112
l 108 110
l 102 115
l 105 114
l 103 107
l 104 123
l 102 121
l 108 117
l 105 122
l 99 120
l 109 118
l 105 118
l 108 122
l 102 117
l 104 119
l 106 121
l 106 119
l 107 123
l 109 120
l 99 116
l 96 97
