# Blender v2.79 (sub 0) OBJ File: 'bird_skull.blend'
# www.blender.org
mtllib bird_skull.mtl
o Cube
v 1.050857 1.553722 2.052965
v 1.370767 1.553722 3.370586
v 0.452588 3.553722 2.950349
v 0.388645 3.553722 3.570500
v 1.134349 1.711776 4.052965
v 1.081504 0.711776 4.052965
v 0.308178 1.711775 5.557840
v 0.552610 1.362578 5.575930
v 0.877947 2.553722 2.052965
v 0.761497 2.632749 3.811733
v 0.567175 1.970908 3.462481
v 0.282917 2.891881 3.811733
v 0.283587 2.100474 4.052965
v 0.466074 2.499169 3.846575
v -1.050857 1.553722 2.052965
v -1.370767 1.553722 3.370586
v 0.000000 0.711776 4.052965
v 0.000000 1.553722 2.052965
v -0.452588 3.553722 2.950349
v -0.388645 3.553722 3.570500
v 0.000000 3.553722 3.830989
v 0.000000 2.894491 2.365630
v -1.134349 1.711776 4.052965
v 0.000000 0.989050 5.783719
v -1.081504 0.711776 4.052965
v 0.000000 2.230040 4.052965
v 0.000000 0.711775 6.418823
v -0.308178 1.711775 5.557840
v -0.552610 1.362578 5.575930
v 0.000000 1.711775 5.728261
v -0.877947 2.553722 2.052965
v 0.000000 3.553722 2.750407
v -0.761497 2.632749 3.811733
v -0.567175 1.970908 3.462481
v -0.282917 2.891881 3.811733
v -0.283587 2.100474 4.052965
v -0.466074 2.499169 3.846575
vn 0.2055 -0.9009 -0.3824
vn 0.0000 1.0000 0.0000
vn 0.9220 0.3847 0.0438
vn 0.9401 -0.0497 0.3372
vn 0.9368 -0.0495 0.3465
vn 0.9443 0.3143 0.0974
vn 0.4246 -0.8297 -0.3622
vn 0.3663 0.9096 0.1962
vn -0.7428 -0.1286 0.6570
vn 0.0803 0.1758 0.9811
vn 0.7388 0.5382 0.4056
vn 0.5880 -0.7987 0.1280
vn 0.0000 -0.9196 0.3930
vn 0.8005 0.5822 0.1425
vn 0.9583 0.1657 -0.2327
vn 0.4142 0.5172 0.7490
vn 0.5646 0.4317 0.7035
vn -0.0070 0.6662 -0.7457
vn -0.2504 0.2199 -0.9428
vn 0.0000 0.0000 -1.0000
vn 0.3565 0.4710 -0.8069
vn 0.1770 0.3874 0.9048
vn 0.2878 0.2170 0.9328
vn 0.1697 0.3134 0.9343
vn 0.4134 0.1506 0.8980
vn 0.5445 0.2091 0.8123
vn 0.0637 0.1176 0.9910
vn 0.3261 -0.5143 0.7932
vn 0.8746 -0.1642 0.4561
vn -0.2055 -0.9009 -0.3824
vn -0.9220 0.3847 0.0438
vn -0.9401 -0.0497 0.3372
vn -0.9368 -0.0495 0.3465
vn -0.9443 0.3143 0.0974
vn -0.4246 -0.8297 -0.3622
vn -0.3663 0.9096 0.1962
vn 0.7428 -0.1286 0.6570
vn -0.0803 0.1758 0.9811
vn -0.7388 0.5382 0.4056
vn -0.5880 -0.7987 0.1280
vn -0.8005 0.5822 0.1425
vn -0.9583 0.1657 -0.2327
vn -0.4142 0.5172 0.7490
vn -0.5646 0.4317 0.7035
vn 0.0070 0.6662 -0.7457
vn 0.2504 0.2199 -0.9428
vn -0.3565 0.4710 -0.8069
vn -0.1770 0.3874 0.9048
vn -0.2878 0.2170 0.9328
vn -0.1697 0.3134 0.9343
vn -0.4134 0.1506 0.8980
vn -0.5445 0.2091 0.8123
vn -0.0637 0.1176 0.9910
vn -0.3261 -0.5143 0.7932
vn -0.8746 -0.1642 0.4561
usemtl Material
s off
f 1//1 2//1 6//1 17//1 18//1
f 4//2 3//2 32//2
f 9//3 4//3 10//3 5//3
f 5//4 6//4 2//4
f 6//5 5//5 8//5
f 9//6 3//6 4//6
f 27//7 24//7 8//7
f 26//8 30//8 7//8 5//8 11//8 13//8
f 5//9 10//9 11//9
f 6//10 5//10 11//10 13//10 26//10 17//10
f 8//11 5//11 7//11
f 24//12 17//12 8//12
f 8//13 17//13 6//13
f 5//14 2//14 9//14
f 2//15 1//15 9//15
f 30//16 27//16 7//16
f 8//17 7//17 27//17
f 3//18 9//18 22//18
f 22//19 9//19 18//19
f 18//20 9//20 1//20
f 21//2 4//2 32//2
f 3//21 22//21 32//21
f 14//22 26//22 13//22
f 14//23 12//23 26//23
f 10//24 4//24 12//24
f 21//25 26//25 12//25
f 21//26 12//26 4//26
f 14//27 10//27 12//27
f 10//28 14//28 11//28
f 14//29 13//29 11//29
f 15//30 18//30 17//30 25//30 16//30
f 20//2 32//2 19//2
f 31//31 23//31 33//31 20//31
f 23//32 16//32 25//32
f 25//33 29//33 23//33
f 31//34 20//34 19//34
f 27//35 29//35 24//35
f 26//36 36//36 34//36 23//36 28//36 30//36
f 23//37 34//37 33//37
f 25//38 17//38 26//38 36//38 34//38 23//38
f 29//39 28//39 23//39
f 24//40 29//40 17//40
f 29//13 25//13 17//13
f 23//41 31//41 16//41
f 16//42 31//42 15//42
f 30//43 28//43 27//43
f 29//44 27//44 28//44
f 19//45 22//45 31//45
f 22//46 18//46 31//46
f 18//20 15//20 31//20
f 21//2 32//2 20//2
f 19//47 32//47 22//47
f 37//48 36//48 26//48
f 37//49 26//49 35//49
f 33//50 35//50 20//50
f 21//51 35//51 26//51
f 21//52 20//52 35//52
f 37//53 35//53 33//53
f 33//54 34//54 37//54
f 37//55 34//55 36//55
