# Blender v2.79 (sub 0) OBJ File: 'boots.blend'
# www.blender.org
mtllib boots.mtl
o Cube.001
v -0.197406 -0.017063 -0.682204
v -0.140085 0.376197 -0.677498
v -0.113199 0.411962 0.077621
v -0.131448 0.536106 0.017731
v -0.063799 0.219140 0.005459
v -0.146056 0.656203 -0.028566
v -0.388710 0.383682 0.065515
v -0.432683 0.564777 0.171846
v -0.664221 0.173623 0.115417
v -0.664221 0.741279 0.166673
v -0.664221 0.355403 0.053409
v -0.664221 0.593448 0.123889
v -1.131036 -0.017063 -0.682204
v -1.188357 0.376197 -0.677498
v -1.215244 0.411962 0.077621
v -1.196994 0.536106 0.017731
v -1.264643 0.219140 0.005459
v -1.182387 0.656203 -0.028566
v -0.939733 0.383682 0.065515
v -0.895760 0.564777 0.171846
vn -0.0745 0.3220 0.9438
vn 0.9892 -0.1438 -0.0284
vn 0.1938 -0.2999 0.9341
vn 0.8954 0.3379 -0.2900
vn 0.9912 0.1258 -0.0413
vn 0.9936 0.1066 -0.0369
vn -0.2273 -0.2707 0.9354
vn 0.3801 0.3726 0.8466
vn 0.0138 -0.5038 0.8637
vn 0.4416 0.4417 0.7810
vn 0.4171 0.5679 0.7096
vn 0.0745 0.3220 0.9438
vn -0.9892 -0.1438 -0.0284
vn -0.1938 -0.2999 0.9341
vn -0.8954 0.3379 -0.2900
vn -0.9912 0.1258 -0.0413
vn -0.9936 0.1066 -0.0369
vn 0.2273 -0.2707 0.9354
vn -0.3801 0.3726 0.8466
vn -0.0138 -0.5038 0.8637
vn -0.4416 0.4417 0.7810
vn -0.4171 0.5679 0.7096
usemtl Material.001
s off
f 11//1 9//1 3//1 7//1
f 3//2 1//2 2//2
f 5//3 3//3 9//3
f 1//4 3//4 5//4
f 3//5 2//5 4//5
f 2//6 6//6 4//6
f 12//7 8//7 10//7
f 6//8 10//8 4//8
f 7//9 3//9 8//9
f 8//10 3//10 4//10
f 8//11 4//11 10//11
f 11//12 19//12 15//12 9//12
f 15//13 14//13 13//13
f 17//14 9//14 15//14
f 13//15 17//15 15//15
f 15//16 16//16 14//16
f 14//17 16//17 18//17
f 12//18 10//18 20//18
f 18//19 16//19 10//19
f 19//20 20//20 15//20
f 20//21 16//21 15//21
f 20//22 10//22 16//22
o Cube
v -0.360756 -0.674230 -0.783931
v -0.238561 -0.790267 0.598677
v -0.113708 1.042324 -0.857026
v -0.011439 -0.076151 0.840612
v -0.220857 -0.076151 0.000001
v -0.193998 0.222312 1.000000
v -0.115828 1.050904 -0.334142
v -0.967687 -0.674230 -0.783931
v -1.089881 -0.790267 0.598677
v -0.664221 -0.623865 1.211704
v -0.664221 -0.848268 -1.000000
v -1.214735 1.042324 -0.857026
v -1.317004 -0.076151 0.840612
v -0.664221 0.135742 1.292703
v -0.664221 1.042324 -1.000000
v -1.107585 -0.076151 0.000001
v -0.664221 -0.076151 0.516594
v -1.134444 0.222312 1.000000
v -0.664221 0.626499 0.938434
v -0.664221 0.168870 -0.047023
v -0.664221 0.181580 0.831470
v -0.664221 1.059483 0.044425
v -1.212614 1.050904 -0.334142
v -0.664221 -0.883200 0.531928
v -0.664221 -0.434299 -0.911670
vn 0.5560 -0.8227 -0.1182
vn 0.9463 -0.2211 -0.2358
vn 0.3689 0.5440 0.7536
vn 0.9898 -0.1053 -0.0963
vn 0.9958 -0.0912 0.0055
vn 0.4213 0.8317 0.3616
vn 0.9873 -0.1449 -0.0657
vn 0.2999 0.7382 -0.6042
vn 0.0000 1.0000 0.0000
vn 0.6884 -0.4194 0.5918
vn -0.1599 -0.1008 0.9820
vn 0.5547 -0.1017 0.8258
vn 0.5382 -0.0894 0.8381
vn 0.5601 0.1871 0.8071
vn 0.3119 0.2221 -0.9238
vn 0.2344 0.5656 -0.7907
vn 0.0043 0.9999 -0.0164
vn 0.2506 -0.0772 -0.9650
vn 0.4995 0.1808 -0.8472
vn 0.1465 -0.9242 0.3526
vn 0.2166 -0.9760 -0.0223
vn 0.3495 -0.0559 -0.9353
vn -0.5560 -0.8227 -0.1182
vn -0.9463 -0.2211 -0.2358
vn -0.3689 0.5440 0.7536
vn -0.9898 -0.1053 -0.0963
vn -0.9958 -0.0912 0.0055
vn -0.4213 0.8317 0.3616
vn -0.9873 -0.1449 -0.0657
vn -0.2999 0.7382 -0.6042
vn -0.6884 -0.4194 0.5918
vn 0.1599 -0.1008 0.9820
vn -0.5547 -0.1017 0.8258
vn -0.5382 -0.0894 0.8381
vn -0.5601 0.1871 0.8071
vn -0.3119 0.2221 -0.9238
vn -0.2344 0.5656 -0.7907
vn -0.0043 0.9999 -0.0164
vn -0.2506 -0.0772 -0.9650
vn -0.4995 0.1808 -0.8472
vn -0.1465 -0.9242 0.3526
vn -0.2166 -0.9760 -0.0223
vn -0.3495 -0.0559 -0.9353
usemtl Material
s off
f 22//23 31//23 21//23
f 25//24 24//24 22//24
f 26//25 39//25 34//25
f 25//26 22//26 21//26
f 25//27 23//27 27//27
f 37//28 25//28 40//28
f 25//29 21//29 23//29
f 37//30 41//30 24//30
f 25//31 37//31 24//31
f 22//32 24//32 30//32
f 40//33 25//33 42//33
f 24//34 26//34 30//34
f 30//35 26//35 34//35
f 42//36 25//36 27//36
f 39//37 26//37 41//37
f 24//38 41//38 26//38
f 27//39 35//39 42//39
f 23//39 35//39 27//39
f 23//40 21//40 35//40
f 21//41 31//41 45//41
f 30//42 44//42 22//42
f 31//43 22//43 44//43
f 35//44 21//44 45//44
f 29//45 28//45 31//45
f 36//46 29//46 33//46
f 38//47 34//47 39//47
f 36//48 28//48 29//48
f 36//49 43//49 32//49
f 37//50 40//50 36//50
f 36//51 32//51 28//51
f 37//52 33//52 41//52
f 36//31 33//31 37//31
f 29//53 30//53 33//53
f 40//54 42//54 36//54
f 33//55 30//55 38//55
f 30//56 34//56 38//56
f 42//57 43//57 36//57
f 39//58 41//58 38//58
f 33//59 38//59 41//59
f 43//60 42//60 35//60
f 32//60 43//60 35//60
f 32//61 35//61 28//61
f 28//62 45//62 31//62
f 30//63 29//63 44//63
f 31//64 44//64 29//64
f 35//65 45//65 28//65
