# Blender v2.79 (sub 0) OBJ File: 'flash.blend'
# www.blender.org
mtllib flash.mtl
o Cube.001
v 1.403694 0.000000 -1.810285
v 1.835203 0.000000 -1.390403
v 1.156555 -0.709155 -1.551716
v 1.588064 -0.709155 -1.131833
v 0.701847 0.000000 -1.810285
v 1.619448 0.000000 -1.600344
v 1.835202 0.000000 -0.695201
v 1.403694 0.487505 -1.810285
v 1.835203 0.487505 -1.390403
v 1.835202 0.487505 -0.695201
v 0.701847 0.487505 -1.810285
v 1.619448 0.487505 -1.600344
v -1.403694 0.000000 -1.810285
v 0.000000 0.000000 -1.810286
v -1.835203 0.000000 -1.390403
v -1.156555 -0.709155 -1.551716
v -1.588064 -0.709155 -1.131833
v 0.000000 -0.760385 -1.810286
v -0.701847 0.000000 -1.810285
v -1.619448 0.000000 -1.600344
v -1.835202 0.000000 -0.695201
v -1.403694 0.487505 -1.810285
v -1.835203 0.487505 -1.390403
v 0.000000 0.500000 -1.850344
v -1.835202 0.487505 -0.695201
v -0.701847 0.487505 -1.810285
v -1.619448 0.487505 -1.600344
v 1.403694 0.000000 1.810285
v 1.835202 0.000000 0.000000
v 1.835203 0.000000 1.390403
v 1.156555 -0.709155 1.551716
v 1.588064 -0.709155 1.131833
v 1.835202 -0.815397 0.000000
v 0.701847 0.000000 1.810285
v 1.619448 0.000000 1.600344
v 1.835202 0.000000 0.695201
v 1.403694 0.487505 1.810285
v 1.835203 0.487505 1.390403
v 1.872655 0.500000 0.000000
v 1.835202 0.487505 0.695201
v 0.701847 0.487505 1.810285
v 1.619448 0.487505 1.600344
v -1.403694 0.000000 1.810285
v 0.000000 0.000000 1.810286
v -1.835202 0.000000 0.000000
v -1.835203 0.000000 1.390403
v -1.156555 -0.709155 1.551716
v -1.588064 -0.709155 1.131833
v 0.000000 -0.760385 1.810286
v -1.835202 -0.815397 0.000000
v 0.000000 -0.750000 0.000000
v -0.701847 0.000000 1.810285
v -1.619448 0.000000 1.600344
v -1.835202 0.000000 0.695201
v -1.403694 0.487505 1.810285
v -1.835203 0.487505 1.390403
v 0.000000 0.500000 1.850344
v -1.872655 0.500000 0.000000
v -1.835202 0.487505 0.695201
v -0.701847 0.487505 1.810285
v -1.619448 0.487505 1.600344
v 0.000000 0.500000 0.000000
vn 0.9443 -0.3291 0.0000
vn 0.6227 -0.4503 -0.6399
vn 0.9770 0.0000 -0.2133
vn 0.0430 -0.9991 0.0057
vn 0.0148 -0.9998 -0.0153
vn -0.0355 -0.9957 -0.0857
vn 0.2168 -0.4002 -0.8904
vn 0.0000 0.0000 -1.0000
vn 0.6974 0.0000 -0.7167
vn 1.0000 0.0000 0.0000
vn 0.9958 -0.0746 -0.0523
vn 0.0554 -0.0797 -0.9953
vn 0.0057 1.0000 -0.0058
vn -0.9443 -0.3291 0.0000
vn -0.6227 -0.4503 -0.6399
vn -0.9770 0.0000 -0.2133
vn -0.0430 -0.9991 0.0057
vn -0.0148 -0.9998 -0.0153
vn 0.0355 -0.9957 -0.0857
vn -0.2168 -0.4002 -0.8904
vn -0.6974 0.0000 -0.7167
vn -1.0000 0.0000 0.0000
vn -0.9958 -0.0746 -0.0523
vn -0.0554 -0.0797 -0.9953
vn -0.0057 1.0000 -0.0058
vn 0.6227 -0.4503 0.6399
vn 0.9770 0.0000 0.2133
vn 0.0430 -0.9991 -0.0057
vn 0.0148 -0.9998 0.0153
vn -0.0355 -0.9957 0.0857
vn 0.2168 -0.4002 0.8904
vn 0.0000 0.0000 1.0000
vn 0.6974 0.0000 0.7167
vn 0.9958 -0.0746 0.0523
vn 0.0554 -0.0797 0.9953
vn 0.0057 1.0000 0.0058
vn -0.6227 -0.4503 0.6399
vn -0.9770 0.0000 0.2133
vn -0.0430 -0.9991 -0.0057
vn -0.0148 -0.9998 0.0153
vn 0.0355 -0.9957 0.0857
vn -0.2168 -0.4002 0.8904
vn -0.6974 0.0000 0.7167
vn -0.9958 -0.0746 0.0523
vn -0.0554 -0.0797 0.9953
vn -0.0057 1.0000 0.0058
usemtl Material.001
s off
f 2//1 7//1 29//1 4//1
f 2//2 4//2 1//2 6//2
f 33//3 4//3 29//3
f 18//4 3//4 51//4
f 4//5 51//5 3//5
f 33//6 51//6 4//6
f 3//2 1//2 4//2
f 3//7 18//7 1//7
f 14//8 5//8 1//8 18//8
f 14//8 11//8 5//8
f 2//9 6//9 12//9
f 2//10 9//10 7//10
f 10//11 39//11 29//11
f 7//10 10//10 29//10
f 7//10 9//10 10//10
f 9//9 2//9 12//9
f 12//9 6//9 8//9
f 6//9 1//9 8//9
f 11//12 14//12 24//12
f 5//8 8//8 1//8
f 5//8 11//8 8//8
f 9//13 12//13 8//13 11//13 24//13 62//13 39//13 10//13
f 15//14 17//14 45//14 21//14
f 15//15 20//15 13//15 17//15
f 50//16 45//16 17//16
f 18//17 51//17 16//17
f 17//18 16//18 51//18
f 50//19 17//19 51//19
f 16//15 17//15 13//15
f 16//20 13//20 18//20
f 14//8 18//8 13//8 19//8
f 14//8 19//8 26//8
f 15//21 27//21 20//21
f 15//22 21//22 23//22
f 25//23 45//23 58//23
f 21//22 45//22 25//22
f 21//22 25//22 23//22
f 23//21 27//21 15//21
f 27//21 22//21 20//21
f 20//21 22//21 13//21
f 26//24 24//24 14//24
f 19//8 13//8 22//8
f 19//8 22//8 26//8
f 23//25 25//25 58//25 62//25 24//25 26//25 22//25 27//25
f 30//1 32//1 29//1 36//1
f 30//26 35//26 28//26 32//26
f 33//27 29//27 32//27
f 49//28 51//28 31//28
f 32//29 31//29 51//29
f 33//30 32//30 51//30
f 31//26 32//26 28//26
f 31//31 28//31 49//31
f 44//32 49//32 28//32 34//32
f 44//32 34//32 41//32
f 30//33 42//33 35//33
f 30//10 36//10 38//10
f 40//34 29//34 39//34
f 36//10 29//10 40//10
f 36//10 40//10 38//10
f 38//33 42//33 30//33
f 42//33 37//33 35//33
f 35//33 37//33 28//33
f 41//35 57//35 44//35
f 34//32 28//32 37//32
f 34//32 37//32 41//32
f 38//36 40//36 39//36 62//36 57//36 41//36 37//36 42//36
f 46//14 54//14 45//14 48//14
f 46//37 48//37 43//37 53//37
f 50//38 48//38 45//38
f 49//39 47//39 51//39
f 48//40 51//40 47//40
f 50//41 51//41 48//41
f 47//37 43//37 48//37
f 47//42 49//42 43//42
f 44//32 52//32 43//32 49//32
f 44//32 60//32 52//32
f 46//43 53//43 61//43
f 46//22 56//22 54//22
f 59//44 58//44 45//44
f 54//22 59//22 45//22
f 54//22 56//22 59//22
f 56//43 46//43 61//43
f 61//43 53//43 55//43
f 53//43 43//43 55//43
f 60//45 44//45 57//45
f 52//32 55//32 43//32
f 52//32 60//32 55//32
f 56//46 61//46 55//46 60//46 57//46 62//46 58//46 59//46
o Cube
v 2.130650 -1.000000 -1.215901
v 1.117819 -1.000000 -2.215902
v 2.416524 1.000000 -1.390403
v 1.403694 1.000000 -2.390403
v 1.403694 0.000000 -2.390403
v 2.416524 0.000000 -1.390403
v 1.146267 1.652537 -1.115280
v 0.733627 1.700841 -0.929642
v 0.984187 1.695448 -0.695201
v 1.182816 2.306397 -1.153949
v 1.403694 0.975010 -1.810285
v 1.835203 0.975010 -1.390403
v 0.770175 2.354701 -0.968310
v 1.020736 2.349308 -0.733870
v 0.785027 3.392135 -0.828281
v 0.372387 3.440439 -0.642643
v 0.622947 3.435047 -0.408202
v 0.810789 3.774300 -0.848289
v 0.398148 3.822603 -0.662650
v 0.648709 3.817211 -0.428210
v 0.738588 3.360521 -1.462038
v 0.764350 3.742686 -1.482046
v 1.210360 3.361646 -0.882789
v 1.236121 3.743810 -0.902796
v 1.163921 3.330031 -1.516545
v 1.189682 3.712196 -1.536553
v 1.403694 0.487505 -1.810285
v 1.835203 0.487505 -1.390403
v 1.619448 0.975010 -1.600344
v 1.872656 0.987505 -0.695201
v 0.701847 0.987505 -1.850344
v 1.835202 0.487505 -0.695201
v 0.701847 0.487505 -1.810285
v 1.619448 0.487505 -1.600344
v 0.000000 -1.000000 -2.390403
v 0.000000 1.000000 -2.390403
v -2.130650 -1.000000 -1.215901
v -1.117819 -1.000000 -2.215902
v 0.000000 0.000000 -2.390403
v -2.416524 1.000000 -1.390403
v -1.403694 1.000000 -2.390403
v -1.403694 0.000000 -2.390403
v -2.416524 0.000000 -1.390403
v -1.146267 1.652537 -1.115280
v 0.000000 1.749145 -1.061632
v -0.733627 1.700841 -0.929642
v -0.984187 1.695448 -0.695201
v 0.000000 2.403005 -1.100301
v -1.182816 2.306397 -1.153949
v -1.403694 0.975010 -1.810285
v 0.000000 1.000000 -1.890403
v -1.835203 0.975010 -1.390403
v 0.000000 1.749145 -0.732163
v -0.770175 2.354701 -0.968310
v -1.020736 2.349308 -0.733870
v 0.000000 2.403005 -0.770831
v 0.000000 3.488743 -0.774633
v -0.785027 3.392135 -0.828281
v -0.372387 3.440439 -0.642643
v -0.622947 3.435047 -0.408202
v 0.000000 3.488743 -0.445164
v 0.000000 3.870908 -0.794641
v -0.810789 3.774300 -0.848289
v -0.398148 3.822603 -0.662650
v -0.648709 3.817211 -0.428210
v 0.000000 3.870908 -0.465172
v 0.000000 3.457129 -1.408390
v -0.738588 3.360521 -1.462038
v 0.000000 3.839293 -1.428398
v -0.764350 3.742686 -1.482046
v -1.210360 3.361646 -0.882789
v -1.236121 3.743810 -0.902796
v -1.163921 3.330031 -1.516545
v -1.189682 3.712196 -1.536553
v -1.403694 0.487505 -1.810285
v -1.835203 0.487505 -1.390403
v -1.619448 0.975010 -1.600344
v -1.872656 0.987505 -0.695201
v -0.701847 0.987505 -1.850344
v 0.000000 0.500000 -1.850344
v -1.835202 0.487505 -0.695201
v -0.701847 0.487505 -1.810285
v -1.619448 0.487505 -1.600344
v 2.416524 -1.000000 0.000000
v 2.416524 1.000000 0.000000
v 2.130650 -1.000000 1.215901
v 1.117819 -1.000000 2.215902
v 2.416524 0.000000 0.000000
v 2.416524 1.000000 1.390403
v 1.403694 1.000000 2.390403
v 1.403694 0.000000 2.390403
v 2.416524 0.000000 1.390403
v 1.146267 1.652537 1.115280
v 1.309609 1.738360 0.000000
v 0.733627 1.700841 0.929642
v 0.984187 1.695448 0.695201
v 1.182816 2.306397 1.153949
v 1.403694 0.975010 1.810285
v 1.835203 0.975010 1.390403
v 1.910109 1.000000 0.000000
v 0.835748 1.738360 0.000000
v 1.346157 2.392220 0.000000
v 0.770175 2.354701 0.968310
v 1.020736 2.349308 0.733870
v 0.872296 2.392220 0.000000
v 0.785027 3.392135 0.828281
v 0.948369 3.477958 0.000000
v 0.372387 3.440439 0.642643
v 0.622947 3.435047 0.408202
v 0.474507 3.477958 0.000000
v 0.810789 3.774300 0.848289
v 0.974130 3.860123 0.000000
v 0.398148 3.822603 0.662650
v 0.648709 3.817211 0.428210
v 0.500269 3.860123 0.000000
v 0.738588 3.360521 1.462038
v 0.764350 3.742686 1.482046
v 1.210360 3.361646 0.882789
v 1.373701 3.447469 0.000000
v 1.236121 3.743810 0.902796
v 1.399463 3.829633 0.000000
v 1.163921 3.330031 1.516545
v 1.189682 3.712196 1.536553
v 1.403694 0.487505 1.810285
v 1.835203 0.487505 1.390403
v 1.619448 0.975010 1.600344
v 1.872656 0.987505 0.695201
v 0.701847 0.987505 1.850344
v 1.872655 0.500000 0.000000
v 1.835202 0.487505 0.695201
v 0.701847 0.487505 1.810285
v 1.619448 0.487505 1.600344
v -2.416524 -1.000000 0.000000
v 0.000000 -1.000000 0.000000
v 0.000000 -1.000000 2.390403
v -2.416524 1.000000 0.000000
v 0.000000 1.000000 2.390403
v -2.130650 -1.000000 1.215901
v -1.117819 -1.000000 2.215902
v -2.416524 0.000000 0.000000
v 0.000000 0.000000 2.390403
v -2.416524 1.000000 1.390403
v -1.403694 1.000000 2.390403
v -1.403694 0.000000 2.390403
v -2.416524 0.000000 1.390403
v -1.146267 1.652537 1.115280
v 0.000000 1.749145 1.061632
v -1.309609 1.738360 0.000000
v -0.733627 1.700841 0.929642
v -0.984187 1.695448 0.695201
v 0.000000 2.403005 1.100301
v -1.182816 2.306397 1.153949
v -1.403694 0.975010 1.810285
v 0.000000 1.000000 1.890403
v -1.835203 0.975010 1.390403
v -1.910109 1.000000 0.000000
v -0.835748 1.738360 0.000000
v 0.000000 1.749145 0.732163
v -1.346157 2.392220 0.000000
v -0.770175 2.354701 0.968310
v -1.020736 2.349308 0.733870
v -0.872296 2.392220 0.000000
v 0.000000 2.403005 0.770831
v 0.000000 3.488743 0.774633
v -0.785027 3.392135 0.828281
v -0.948369 3.477958 0.000000
v -0.372387 3.440439 0.642643
v -0.622947 3.435047 0.408202
v -0.474507 3.477958 0.000000
v 0.000000 3.488743 0.445164
v 0.000000 3.870908 0.794641
v -0.810789 3.774300 0.848289
v -0.974130 3.860123 0.000000
v -0.398148 3.822603 0.662650
v -0.648709 3.817211 0.428210
v -0.500269 3.860123 0.000000
v 0.000000 3.870908 0.465172
v 0.000000 3.457129 1.408390
v -0.738588 3.360521 1.462038
v 0.000000 3.839293 1.428398
v -0.764350 3.742686 1.482046
v 0.000000 -0.750000 0.000000
v -1.210360 3.361646 0.882789
v -1.373701 3.447469 0.000000
v -1.236121 3.743810 0.902796
v -1.399463 3.829633 0.000000
v -1.163921 3.330031 1.516545
v -1.189682 3.712196 1.536553
v -1.403694 0.487505 1.810285
v -1.835203 0.487505 1.390403
v -1.619448 0.975010 1.600344
v -1.872656 0.987505 0.695201
v -0.701847 0.987505 1.850344
v 0.000000 0.500000 1.850344
v -1.872655 0.500000 0.000000
v -1.835202 0.487505 0.695201
v -0.701847 0.487505 1.810285
v -1.619448 0.487505 1.600344
vn 0.0000 -1.0000 0.0000
vn 1.0000 0.0000 0.0000
vn 0.0687 -0.0965 -0.9930
vn 0.0000 0.0000 -1.0000
vn 0.9828 -0.1499 -0.1078
vn -0.0459 -0.8388 0.5425
vn 0.4302 0.8931 -0.1317
vn 0.0000 0.8711 -0.4911
vn 0.5549 0.8319 0.0000
vn 0.0544 0.8933 -0.4462
vn 0.9887 -0.0593 -0.1378
vn -0.9774 0.0485 -0.2060
vn 0.2567 0.0499 0.9652
vn -0.6800 0.0811 0.7287
vn -0.0507 -0.0575 -0.9971
vn 0.9141 0.3622 -0.1820
vn -0.6232 -0.4252 0.6563
vn -0.9265 -0.3068 -0.2178
vn 0.3016 -0.2228 0.9270
vn -0.0245 0.2831 -0.9588
vn -0.6798 0.0840 0.7285
vn -0.9392 0.0544 -0.3390
vn 0.4590 0.0310 0.8879
vn -0.1219 -0.9911 0.0539
vn -0.0639 -0.9917 0.1117
vn 0.0855 0.9940 -0.0685
vn 0.1204 0.9927 0.0000
vn 0.0000 0.9950 -0.0997
vn 0.1187 0.9929 0.0054
vn 0.0017 0.9949 -0.1010
vn -0.0775 -0.0495 -0.9958
vn -0.1300 -0.0431 -0.9906
vn 0.1180 0.9916 -0.0538
vn -0.0554 0.0797 0.9953
vn -0.6974 0.0000 0.7167
vn -0.9958 0.0746 0.0523
vn 0.7026 0.0000 -0.7116
vn 0.6682 -0.3091 -0.6768
vn 0.3613 0.8576 -0.3659
vn 0.1392 -0.7096 0.6908
vn -0.3845 -0.8343 0.3951
vn -0.3857 -0.8348 0.3930
vn -0.6225 -0.7812 0.0476
vn -0.5650 -0.8221 -0.0699
vn 0.9824 -0.0707 -0.1729
vn 0.9951 -0.0707 -0.0694
vn 0.0645 0.9964 -0.0544
vn -0.0645 -0.9964 0.0544
vn 0.0641 0.9920 -0.1092
vn -1.0000 0.0000 -0.0000
vn 0.0000 0.0000 1.0000
vn -0.0687 -0.0965 -0.9930
vn -0.9828 -0.1499 -0.1078
vn 0.0459 -0.8388 0.5425
vn -0.4302 0.8931 -0.1317
vn -0.5549 0.8319 0.0000
vn -0.0544 0.8933 -0.4462
vn -0.9887 -0.0593 -0.1378
vn 0.9774 0.0485 -0.2060
vn -0.2567 0.0499 0.9652
vn 0.6800 0.0811 0.7287
vn 0.0507 -0.0575 -0.9971
vn -0.9141 0.3622 -0.1820
vn 0.6232 -0.4252 0.6563
vn 0.9265 -0.3068 -0.2178
vn -0.3016 -0.2228 0.9270
vn 0.0245 0.2831 -0.9588
vn 0.6798 0.0840 0.7285
vn 0.9392 0.0544 -0.3390
vn -0.4590 0.0310 0.8879
vn 0.1219 -0.9911 0.0539
vn 0.0639 -0.9917 0.1117
vn -0.0855 0.9940 -0.0685
vn -0.1204 0.9927 0.0000
vn -0.1187 0.9929 0.0054
vn -0.0017 0.9949 -0.1010
vn 0.0775 -0.0495 -0.9958
vn 0.1300 -0.0431 -0.9906
vn -0.1180 0.9916 -0.0538
vn 0.0554 0.0797 0.9953
vn 0.6974 0.0000 0.7167
vn 0.9958 0.0746 0.0523
vn -0.7026 0.0000 -0.7116
vn -0.6682 -0.3091 -0.6768
vn -0.3613 0.8576 -0.3659
vn -0.1392 -0.7096 0.6908
vn 0.3845 -0.8343 0.3951
vn 0.3857 -0.8348 0.3930
vn 0.6225 -0.7812 0.0476
vn 0.5650 -0.8221 -0.0699
vn -0.9824 -0.0707 -0.1729
vn -0.9951 -0.0707 -0.0694
vn -0.0645 0.9964 -0.0544
vn 0.0645 -0.9964 0.0544
vn -0.0641 0.9920 -0.1092
vn 0.0687 -0.0965 0.9930
vn 0.9828 -0.1499 0.1078
vn -0.0459 -0.8388 -0.5425
vn 0.4302 0.8931 0.1317
vn 0.0000 0.8711 0.4911
vn 0.0544 0.8933 0.4462
vn 0.9887 -0.0593 0.1378
vn -0.9774 0.0485 0.2060
vn 0.2567 0.0499 -0.9652
vn -0.6800 0.0811 -0.7287
vn -0.0507 -0.0575 0.9971
vn 0.9141 0.3622 0.1820
vn -0.6232 -0.4252 -0.6563
vn -0.9265 -0.3068 0.2178
vn 0.3016 -0.2228 -0.9270
vn -0.0245 0.2831 0.9588
vn -0.6798 0.0840 -0.7285
vn -0.9392 0.0544 0.3390
vn 0.4590 0.0310 -0.8879
vn -0.1219 -0.9911 -0.0539
vn -0.0639 -0.9917 -0.1117
vn 0.0855 0.9940 0.0685
vn 0.0000 0.9950 0.0997
vn 0.1187 0.9929 -0.0054
vn 0.0017 0.9949 0.1010
vn -0.0775 -0.0495 0.9958
vn -0.1300 -0.0431 0.9906
vn 0.1180 0.9916 0.0538
vn -0.0554 0.0797 -0.9953
vn -0.6974 0.0000 -0.7167
vn -0.9958 0.0746 -0.0523
vn 0.7026 0.0000 0.7116
vn 0.6682 -0.3091 0.6768
vn 0.3613 0.8576 0.3659
vn 0.1392 -0.7096 -0.6908
vn -0.3845 -0.8343 -0.3951
vn -0.3857 -0.8348 -0.3930
vn -0.6225 -0.7812 -0.0476
vn -0.5650 -0.8221 0.0699
vn 0.9824 -0.0707 0.1729
vn 0.9951 -0.0707 0.0694
vn 0.0645 0.9964 0.0544
vn -0.0645 -0.9964 -0.0544
vn 0.0641 0.9920 0.1092
vn -0.0687 -0.0965 0.9930
vn -0.9828 -0.1499 0.1078
vn 0.0459 -0.8388 -0.5425
vn -0.4302 0.8931 0.1317
vn -0.0544 0.8933 0.4462
vn -0.9887 -0.0593 0.1378
vn 0.9774 0.0485 0.2060
vn -0.2567 0.0499 -0.9652
vn 0.6800 0.0811 -0.7287
vn 0.0507 -0.0575 0.9971
vn -0.9141 0.3622 0.1820
vn 0.6232 -0.4252 -0.6563
vn 0.9265 -0.3068 0.2178
vn -0.3016 -0.2228 -0.9270
vn 0.0245 0.2831 0.9588
vn 0.6798 0.0840 -0.7285
vn 0.9392 0.0544 0.3390
vn -0.4590 0.0310 -0.8879
vn 0.1219 -0.9911 -0.0539
vn 0.0639 -0.9917 -0.1117
vn -0.0855 0.9940 0.0685
vn -0.1187 0.9929 -0.0054
vn -0.0017 0.9949 0.1010
vn 0.0775 -0.0495 0.9958
vn 0.1300 -0.0431 0.9906
vn -0.1180 0.9916 0.0538
vn 0.0554 0.0797 -0.9953
vn 0.6974 0.0000 -0.7167
vn 0.9958 0.0746 -0.0523
vn -0.7026 0.0000 0.7116
vn -0.6682 -0.3091 0.6768
vn -0.3613 0.8576 0.3659
vn -0.1392 -0.7096 -0.6908
vn 0.3845 -0.8343 -0.3951
vn 0.3857 -0.8348 -0.3930
vn 0.6225 -0.7812 -0.0476
vn 0.5650 -0.8221 0.0699
vn -0.9824 -0.0707 0.1729
vn -0.9951 -0.0707 0.0694
vn -0.0645 0.9964 0.0544
vn 0.0645 -0.9964 -0.0544
vn -0.0641 0.9920 0.1092
usemtl Material.002
s off
f 63//47 146//47 196//47 97//47 64//47
f 68//48 65//48 147//48 150//48
f 67//49 64//49 97//49 101//49
f 66//50 67//50 101//50 98//50
f 63//51 68//51 150//51 146//51
f 113//52 93//52 73//52 115//52
f 65//53 69//53 156//53
f 66//54 98//54 107//54
f 147//55 65//55 156//55
f 69//56 66//56 107//56
f 69//57 72//57 164//57 156//57
f 163//58 167//58 76//58 71//58
f 70//59 75//59 118//59 115//59
f 71//60 76//60 75//60 70//60
f 107//61 110//61 72//61 69//61
f 72//62 77//62 169//62 164//62
f 76//63 79//63 78//63 75//63
f 167//64 172//64 79//64 76//64
f 75//65 78//65 123//65 118//65
f 110//66 119//66 77//66 72//66
f 79//67 82//67 81//67 78//67
f 172//68 177//68 82//68 79//68
f 78//69 81//69 128//69 123//69
f 119//70 129//70 83//70 77//70
f 77//71 85//71 181//71 169//71
f 81//72 82//72 80//72
f 124//73 128//73 81//73
f 174//74 82//74 177//74
f 80//75 124//75 81//75
f 82//76 174//76 80//76
f 129//77 131//77 84//77 83//77
f 84//78 88//78 87//78 83//78
f 80//79 84//79 131//79 124//79
f 73//80 93//80 95//80
f 74//81 91//81 90//81
f 74//82 94//82 92//82
f 67//83 66//83 65//83 68//83
f 64//84 67//84 68//84 63//84
f 69//85 65//85 66//85
f 115//86 73//86 70//86
f 73//87 91//87 74//87 70//87
f 70//88 74//88 71//88
f 74//89 92//89 162//89 71//89
f 163//90 71//90 162//90
f 85//91 86//91 183//91 181//91
f 85//92 87//92 88//92 86//92
f 80//93 86//93 88//93 84//93
f 83//94 87//94 85//94 77//94
f 174//95 183//95 86//95 80//95
f 94//82 191//82 92//82
f 92//82 191//82 162//82
f 90//96 94//96 74//96
f 91//81 73//81 96//81
f 91//81 96//81 90//81
f 96//81 73//81 89//81
f 93//80 113//80 142//80
f 93//80 142//80 95//80
f 95//97 89//97 73//97
f 99//47 100//47 97//47 196//47 195//47
f 105//96 202//96 198//96 102//96
f 104//98 101//98 97//98 100//98
f 103//50 98//50 101//50 104//50
f 99//99 195//99 202//99 105//99
f 113//100 115//100 112//100 141//100
f 102//101 210//101 106//101
f 103//54 107//54 98//54
f 198//102 210//102 102//102
f 106//103 107//103 103//103
f 106//104 210//104 221//104 111//104
f 219//105 109//105 117//105 224//105
f 108//106 115//106 118//106 116//106
f 109//107 108//107 116//107 117//107
f 107//108 106//108 111//108 110//108
f 111//109 221//109 228//109 120//109
f 117//110 116//110 121//110 122//110
f 224//111 117//111 122//111 231//111
f 116//112 118//112 123//112 121//112
f 110//113 111//113 120//113 119//113
f 122//114 121//114 126//114 127//114
f 231//115 122//115 127//115 238//115
f 121//116 123//116 128//116 126//116
f 119//117 120//117 130//117 129//117
f 120//118 228//118 246//118 133//118
f 126//119 125//119 127//119
f 124//120 126//120 128//120
f 235//74 238//74 127//74
f 125//121 126//121 124//121
f 127//122 125//122 235//122
f 129//123 130//123 132//123 131//123
f 132//124 130//124 135//124 136//124
f 125//125 124//125 131//125 132//125
f 112//126 144//126 141//126
f 114//127 138//127 139//127
f 114//128 140//128 143//128
f 104//129 105//129 102//129 103//129
f 100//130 99//130 105//130 104//130
f 106//131 103//131 102//131
f 115//132 108//132 112//132
f 112//133 108//133 114//133 139//133
f 108//134 109//134 114//134
f 114//135 109//135 218//135 140//135
f 219//136 218//136 109//136
f 133//137 246//137 248//137 134//137
f 133//138 134//138 136//138 135//138
f 125//139 132//139 136//139 134//139
f 130//140 120//140 133//140 135//140
f 235//141 125//141 134//141 248//141
f 143//128 140//128 257//128
f 140//128 218//128 257//128
f 138//48 114//48 143//48
f 139//127 145//127 112//127
f 139//127 138//127 145//127
f 145//127 137//127 112//127
f 141//126 142//126 113//126
f 141//126 144//126 142//126
f 144//97 112//97 137//97
f 148//47 149//47 197//47 196//47 146//47
f 154//48 150//48 147//48 151//48
f 153//142 203//142 197//142 149//142
f 152//97 199//97 203//97 153//97
f 148//143 146//143 150//143 154//143
f 216//144 220//144 160//144 190//144
f 151//145 156//145 155//145
f 152//146 209//146 199//146
f 147//55 156//55 151//55
f 155//147 209//147 152//147
f 155//148 156//148 164//148 159//148
f 163//149 158//149 166//149 167//149
f 157//150 220//150 225//150 165//150
f 158//151 157//151 165//151 166//151
f 209//152 155//152 159//152 213//152
f 159//153 164//153 169//153 168//153
f 166//154 165//154 170//154 171//154
f 167//155 166//155 171//155 172//155
f 165//156 225//156 232//156 170//156
f 213//157 159//157 168//157 226//157
f 171//158 170//158 175//158 176//158
f 172//159 171//159 176//159 177//159
f 170//160 232//160 239//160 175//160
f 226//161 168//161 178//161 240//161
f 168//162 169//162 181//162 180//162
f 175//163 173//163 176//163
f 233//73 175//73 239//73
f 174//164 177//164 176//164
f 173//165 175//165 233//165
f 176//166 173//166 174//166
f 240//167 178//167 179//167 242//167
f 179//168 178//168 184//168 185//168
f 173//169 233//169 242//169 179//169
f 160//170 193//170 190//170
f 161//171 187//171 188//171
f 161//172 189//172 192//172
f 153//173 154//173 151//173 152//173
f 149//174 148//174 154//174 153//174
f 155//175 152//175 151//175
f 220//176 157//176 160//176
f 160//177 157//177 161//177 188//177
f 157//178 158//178 161//178
f 161//179 158//179 162//179 189//179
f 163//180 162//180 158//180
f 180//181 181//181 183//181 182//181
f 180//182 182//182 185//182 184//182
f 173//183 179//183 185//183 182//183
f 178//184 168//184 180//184 184//184
f 174//185 173//185 182//185 183//185
f 192//172 189//172 191//172
f 189//172 162//172 191//172
f 187//96 161//96 192//96
f 188//171 194//171 160//171
f 188//171 187//171 194//171
f 194//171 186//171 160//171
f 190//170 256//170 216//170
f 190//170 193//170 256//170
f 193//50 160//50 186//50
f 200//47 195//47 196//47 197//47 201//47
f 207//96 204//96 198//96 202//96
f 206//186 201//186 197//186 203//186
f 205//97 206//97 203//97 199//97
f 200//187 207//187 202//187 195//187
f 216//188 255//188 215//188 220//188
f 204//189 208//189 210//189
f 205//146 199//146 209//146
f 198//102 204//102 210//102
f 208//190 205//190 209//190
f 208//191 214//191 221//191 210//191
f 219//192 224//192 223//192 212//192
f 211//193 222//193 225//193 220//193
f 212//194 223//194 222//194 211//194
f 209//195 213//195 214//195 208//195
f 214//196 227//196 228//196 221//196
f 223//197 230//197 229//197 222//197
f 224//198 231//198 230//198 223//198
f 222//199 229//199 232//199 225//199
f 213//200 226//200 227//200 214//200
f 230//201 237//201 236//201 229//201
f 231//202 238//202 237//202 230//202
f 229//203 236//203 239//203 232//203
f 226//204 240//204 241//204 227//204
f 227//205 245//205 246//205 228//205
f 236//206 237//206 234//206
f 233//120 239//120 236//120
f 235//164 237//164 238//164
f 234//207 233//207 236//207
f 237//208 235//208 234//208
f 240//209 242//209 243//209 241//209
f 243//210 250//210 249//210 241//210
f 234//211 243//211 242//211 233//211
f 215//212 255//212 259//212
f 217//213 253//213 252//213
f 217//214 258//214 254//214
f 206//215 205//215 204//215 207//215
f 201//216 206//216 207//216 200//216
f 208//217 204//217 205//217
f 220//218 215//218 211//218
f 215//219 253//219 217//219 211//219
f 211//220 217//220 212//220
f 217//221 254//221 218//221 212//221
f 219//222 212//222 218//222
f 245//223 247//223 248//223 246//223
f 245//224 249//224 250//224 247//224
f 234//225 247//225 250//225 243//225
f 241//226 249//226 245//226 227//226
f 235//227 248//227 247//227 234//227
f 258//214 257//214 254//214
f 254//214 257//214 218//214
f 252//48 258//48 217//48
f 253//213 215//213 260//213
f 253//213 260//213 252//213
f 260//213 215//213 251//213
f 255//212 216//212 256//212
f 255//212 256//212 259//212
f 259//50 251//50 215//50
l 113 98
l 65 74
l 66 73
l 147 162
l 196 244
l 102 114
l 103 112
l 198 218
l 216 199
l 151 161
l 152 160
l 204 217
l 205 215
