# Blender v2.79 (sub 0) OBJ File: 'fox_face.blend'
# www.blender.org
mtllib fox_face.mtl
o Cube.003
v 1.628074 -0.365548 -1.212320
v 1.628074 -0.365548 -0.428947
v 1.997422 0.256444 -0.428947
v 1.997422 0.256444 -1.212320
v 1.190122 0.246725 -0.189435
v 1.190122 0.611770 -2.149353
v 0.437083 -0.210567 0.484145
v 0.055081 0.306161 -0.137747
v 0.505007 0.486485 0.243727
v -0.127696 -0.004064 0.913880
v 0.437083 0.899594 -1.613087
v 1.190122 0.429248 -1.169394
v 1.190122 0.520509 -1.659373
v 1.277683 1.335622 -0.700497
v -2.259986 -0.365548 -1.212320
v -0.315956 -1.032904 -1.543514
v -2.259986 -0.365548 -0.428947
v -2.629333 0.256444 -0.428947
v -2.629333 0.256444 -1.212320
v -0.315956 1.161330 -2.062157
v -0.315956 1.187418 -1.076822
v -1.822034 0.246725 -0.189435
v -1.822033 0.611770 -2.149353
v -0.315956 0.357924 0.484145
v -1.068995 -0.210567 0.484145
v -0.686992 0.306161 -0.137747
v -1.136919 0.486485 0.243727
v -0.504215 -0.004064 0.913880
v -0.315956 0.138058 0.913880
v -0.315956 0.357924 -2.797181
v -1.068995 0.899594 -1.613087
v -1.822033 0.429248 -1.169394
v -1.822033 0.520509 -1.659373
v -1.909594 1.335622 -0.700497
vn 0.4028 0.9153 -0.0000
vn 0.2097 -0.9561 0.2047
vn 0.5782 0.7659 0.2812
vn 0.3414 0.9396 -0.0249
vn 0.8598 -0.5106 -0.0000
vn 0.0425 0.9822 0.1829
vn 0.6282 -0.3731 -0.6827
vn -0.3010 -0.7268 -0.6174
vn 0.4516 0.8771 0.1634
vn 0.0691 0.7878 0.6121
vn 0.6139 0.1348 0.7778
vn 0.2823 -0.1676 0.9446
vn 0.3247 -0.9458 0.0000
vn -0.0009 0.8831 0.4693
vn -0.0261 -0.8915 0.4522
vn 0.4328 0.8795 0.1978
vn 0.3357 -0.6307 -0.6997
vn 0.6488 0.5136 -0.5614
vn -0.4516 -0.8771 -0.1634
vn 0.3176 0.7080 -0.6308
vn 0.9960 -0.0878 -0.0163
vn -0.6195 -0.3126 0.7200
vn 0.5578 0.7389 0.3780
vn -0.4028 0.9153 -0.0000
vn -0.2097 -0.9561 0.2047
vn -0.5782 0.7659 0.2812
vn -0.3414 0.9396 -0.0249
vn -0.8598 -0.5106 -0.0000
vn -0.0425 0.9822 0.1829
vn -0.6282 -0.3731 -0.6827
vn 0.3010 -0.7268 -0.6174
vn -0.4516 0.8771 0.1634
vn -0.0691 0.7878 0.6121
vn -0.6139 0.1348 0.7778
vn -0.2823 -0.1676 0.9446
vn -0.3247 -0.9458 0.0000
vn 0.0009 0.8831 0.4693
vn 0.0261 -0.8915 0.4522
vn -0.4328 0.8795 0.1978
vn -0.3357 -0.6307 -0.6997
vn -0.6488 0.5136 -0.5614
vn 0.4516 -0.8771 -0.1634
vn -0.3176 0.7080 -0.6308
vn -0.9960 -0.0878 -0.0163
vn 0.6195 -0.3126 0.7200
vn -0.5578 0.7389 0.3780
usemtl Material
s off
f 4//1 6//1 3//1
f 24//2 8//2 9//2
f 8//3 24//3 7//3
f 20//4 21//4 11//4 6//4
f 3//5 2//5 1//5 4//5
f 5//6 3//6 6//6 13//6 12//6
f 1//7 6//7 4//7
f 1//8 20//8 6//8
f 6//9 11//9 21//9 5//9 12//9 13//9
f 5//10 8//10 7//10
f 7//11 2//11 5//11
f 3//12 5//12 2//12
f 16//13 1//13 2//13
f 9//14 21//14 24//14
f 9//15 8//15 5//15
f 9//16 5//16 21//16
f 16//17 30//17 1//17
f 20//18 1//18 30//18
f 13//19 12//19 11//19
f 11//20 14//20 13//20
f 14//21 12//21 13//21
f 12//22 14//22 11//22
f 29//23 10//23 7//23 24//23
f 19//24 18//24 23//24
f 24//25 27//25 26//25
f 26//26 25//26 24//26
f 20//27 23//27 31//27 21//27
f 18//28 19//28 15//28 17//28
f 22//29 32//29 33//29 23//29 18//29
f 15//30 19//30 23//30
f 15//31 23//31 20//31
f 23//32 33//32 32//32 22//32 21//32 31//32
f 22//33 25//33 26//33
f 25//34 22//34 17//34
f 18//35 17//35 22//35
f 16//36 17//36 15//36
f 27//37 24//37 21//37
f 27//38 22//38 26//38
f 27//39 21//39 22//39
f 16//40 15//40 30//40
f 20//41 30//41 15//41
f 33//42 31//42 32//42
f 31//43 33//43 34//43
f 34//44 33//44 32//44
f 32//45 31//45 34//45
f 29//46 24//46 25//46 28//46
o Cube.002
v -0.127696 -0.004064 0.913880
v -0.315956 0.064770 1.057124
v -0.315956 -0.209649 0.913880
v -0.504215 -0.004064 0.913880
v -0.315956 0.138058 0.913880
vn 0.5578 0.7389 0.3780
vn 0.4510 -0.4130 0.7912
vn -0.5578 0.7389 0.3780
vn -0.4510 -0.4130 0.7912
usemtl Material.002
s off
f 39//47 36//47 35//47
f 36//48 37//48 35//48
f 39//49 38//49 36//49
f 36//50 38//50 37//50
o Cube.001
v 1.628074 -0.365548 -0.428947
v 0.437083 -0.210567 0.484145
v -0.127696 -0.004064 0.913880
v -0.315956 -1.032904 0.484145
v -0.315956 -1.032904 -1.543514
v -2.259986 -0.365548 -0.428947
v -1.068995 -0.210567 0.484145
v -0.315956 -0.209649 0.913880
v -0.504215 -0.004064 0.913880
vn 0.5019 -0.4596 0.7327
vn 0.3247 -0.9458 0.0000
vn 0.4510 -0.4130 0.7912
vn -0.5019 -0.4596 0.7327
vn -0.3247 -0.9458 0.0000
vn -0.4510 -0.4130 0.7912
usemtl Material.001
s off
f 40//51 41//51 43//51
f 43//52 44//52 40//52
f 41//53 42//53 47//53 43//53
f 45//54 43//54 46//54
f 43//55 45//55 44//55
f 46//56 43//56 47//56 48//56
