# Blender v2.79 (sub 0) OBJ File: 'hat.blend'
# www.blender.org
mtllib hat.mtl
o Cube.001
v 0.596791 -0.798670 -0.320984
v 0.596790 -0.798670 0.298443
v 0.574469 -0.559361 -0.364193
v 0.574469 -0.559361 0.255234
v 0.502661 -0.559361 -0.326774
v 0.502660 -0.559361 0.215224
v 0.000000 -0.559361 -0.705421
v 0.000000 -0.798670 -0.662212
v 0.000000 -0.798670 0.618944
v -0.596791 -0.798670 -0.320984
v -0.596790 -0.798670 0.298443
v 0.000000 -0.559361 0.575735
v -0.574469 -0.559361 -0.364193
v -0.574469 -0.559361 0.255234
v 0.000000 -0.559361 -0.625349
v -0.502661 -0.559361 -0.326774
v 0.000000 -0.559361 0.495663
v -0.502660 -0.559361 0.215224
vn 0.4991 -0.1314 -0.8565
vn 0.9957 0.0929 0.0000
vn 0.4724 0.1779 0.8632
vn 0.0000 1.0000 0.0000
vn -0.4991 -0.1314 -0.8565
vn -0.9957 0.0929 0.0000
vn -0.4724 0.1779 0.8632
usemtl Material.001
s off
f 1//1 8//1 7//1 3//1
f 1//2 3//2 4//2 2//2
f 2//3 4//3 12//3 9//3
f 15//4 5//4 6//4 17//4 12//4 4//4 3//4 7//4
f 10//5 13//5 7//5 8//5
f 10//6 11//6 14//6 13//6
f 11//7 9//7 12//7 14//7
f 15//4 7//4 13//4 14//4 12//4 17//4 18//4 16//4
o Cube
v 1.193581 -0.876542 -0.546682
v 1.193581 -0.876542 0.399342
v 1.193582 -0.798670 -0.546682
v 1.193581 -0.798670 0.399342
v 0.894062 -0.798670 1.000000
v 0.894063 -0.876542 1.000000
v 0.894063 -0.876542 -1.000000
v 0.894063 -0.798670 -1.000000
v 0.447031 -0.798670 1.259523
v 0.447031 -0.876542 1.259523
v 0.447031 -0.798670 -1.302790
v 0.447031 -0.876542 -1.302791
v 0.596791 -0.798670 -0.320984
v 0.596790 -0.798670 0.298443
v 0.502661 -0.559361 -0.326774
v 0.360091 -0.171756 0.126729
v 0.360092 -0.171756 -0.415269
v 0.502660 -0.559361 0.215224
v 0.135135 0.189216 -0.045229
v 0.135135 0.189216 -0.587228
v 0.078092 0.582307 -0.871883
v 0.078093 0.582307 -0.961866
v 0.167637 -0.798670 1.252439
v 0.178225 -0.876542 1.259523
v 0.552243 -0.867549 0.301503
v 0.562688 -0.851396 -0.318073
v -1.193581 -0.876542 -0.546682
v -1.193581 -0.876542 0.399342
v 0.000000 -0.876542 -1.302791
v -1.193582 -0.798670 -0.546682
v -1.193581 -0.798670 0.399342
v 0.000000 -0.798670 -1.302790
v -0.894062 -0.798670 1.000000
v -0.894063 -0.876542 1.000000
v -0.894063 -0.876542 -1.000000
v -0.894063 -0.798670 -1.000000
v -0.447031 -0.798670 1.259523
v -0.447031 -0.876542 1.259523
v -0.447031 -0.798670 -1.302790
v -0.447031 -0.876542 -1.302791
v 0.000000 -0.798670 -0.662212
v 0.000000 -0.798670 0.618944
v -0.596791 -0.798670 -0.320984
v -0.596790 -0.798670 0.298443
v 0.000000 -0.559361 -0.625349
v -0.502661 -0.559361 -0.326774
v -0.360091 -0.171756 0.126729
v 0.000000 -0.171756 0.407168
v -0.360092 -0.171756 -0.415269
v 0.000000 -0.171756 -0.636762
v 0.000000 -0.559361 0.495663
v -0.502660 -0.559361 0.215224
v -0.135135 0.189216 -0.045229
v 0.000000 0.301067 -0.085753
v -0.135135 0.189216 -0.587228
v 0.000000 0.189216 -0.737024
v -0.078092 0.582307 -0.871883
v 0.000000 0.582307 -0.711177
v -0.078093 0.582307 -0.961866
v 0.000000 0.582307 -1.008237
v 0.000000 0.750598 -0.955809
v 0.000000 -0.798670 0.954485
v -0.167637 -0.798670 1.252439
v -0.178225 -0.876542 1.259523
v 0.000000 -0.878847 0.984375
v 0.000000 -0.882680 0.601575
v -0.552243 -0.867549 0.301503
v -0.562688 -0.851396 -0.318073
v 0.000000 -0.857247 -0.664694
vn -0.0252 0.0872 0.9959
vn 0.0000 1.0000 0.0000
vn 1.0000 0.0000 0.0000
vn 0.8949 0.0000 0.4462
vn 0.8343 -0.0000 -0.5513
vn 0.5021 0.0000 0.8648
vn -0.8692 -0.0737 0.4890
vn 0.0000 0.0000 -1.0000
vn 0.5608 0.0000 -0.8280
vn 0.8487 0.5289 0.0000
vn 0.4557 0.3541 0.8167
vn 0.9896 0.1436 0.0000
vn 0.7350 0.1422 -0.6630
vn 0.3631 0.6724 0.6450
vn 0.6559 -0.4687 -0.5917
vn 0.6204 0.7240 0.3015
vn 0.5342 0.7710 0.3467
vn 0.4895 0.6045 0.6285
vn 0.5098 -0.2302 -0.8289
vn 0.4391 -0.5102 -0.7395
vn -0.8558 -0.5174 0.0000
vn 0.9071 0.4209 0.0000
vn 0.7592 0.5363 0.3689
vn 0.4932 0.2587 -0.8306
vn 0.6047 0.1773 0.7765
vn 0.9385 0.3452 0.0000
vn 0.5107 -0.0085 -0.8597
vn 0.5238 -0.0251 -0.8515
vn -0.8234 0.1982 0.5317
vn -0.0000 -0.0000 1.0000
vn -0.4662 0.2161 -0.8579
vn -0.8397 0.5431 0.0000
vn -0.5044 0.1578 0.8489
vn -0.0112 -0.9999 0.0055
vn 0.0252 0.0872 0.9959
vn -1.0000 0.0000 0.0000
vn -0.8949 0.0000 0.4462
vn -0.8343 -0.0000 -0.5513
vn -0.5021 0.0000 0.8648
vn 0.8692 -0.0737 0.4890
vn -0.5608 0.0000 -0.8280
vn -0.8487 0.5289 0.0000
vn -0.4557 0.3541 0.8167
vn -0.9896 0.1436 0.0000
vn -0.7350 0.1422 -0.6630
vn -0.3631 0.6724 0.6450
vn -0.6559 -0.4687 -0.5917
vn -0.6204 0.7240 0.3015
vn -0.5342 0.7710 0.3467
vn -0.4895 0.6045 0.6285
vn -0.5098 -0.2302 -0.8289
vn -0.4391 -0.5102 -0.7395
vn 0.8558 -0.5174 0.0000
vn -0.9071 0.4209 0.0000
vn -0.7592 0.5363 0.3689
vn -0.4932 0.2587 -0.8306
vn -0.6047 0.1773 0.7765
vn -0.9385 0.3452 0.0000
vn -0.5107 -0.0085 -0.8597
vn -0.5238 -0.0251 -0.8515
vn 0.8234 0.1982 0.5317
vn 0.4662 0.2161 -0.8579
vn 0.8397 0.5431 0.0000
vn 0.5044 0.1578 0.8489
vn 0.0112 -0.9999 0.0055
usemtl Material
s off
f 42//8 27//8 41//8
f 22//9 21//9 26//9 29//9 50//9 59//9 31//9 32//9 60//9 80//9 41//9 27//9 23//9
f 19//10 21//10 22//10 20//10
f 20//11 22//11 23//11 24//11
f 21//12 19//12 25//12 26//12
f 24//13 23//13 27//13 28//13
f 41//14 80//14 42//14
f 47//15 50//15 29//15 30//15
f 26//16 25//16 30//16 29//16
f 34//17 35//17 38//17
f 36//18 34//18 69//18
f 38//19 40//19 39//19
f 38//20 35//20 74//20
f 37//21 72//21 66//21
f 37//19 38//19 39//19
f 38//22 74//22 40//22
f 76//23 37//23 39//23
f 72//24 37//24 76//24
f 66//25 34//25 37//25
f 68//26 74//26 35//26
f 40//27 74//27 78//27
f 40//28 39//28 76//28 79//28 78//28
f 39//29 40//29 79//29
f 79//30 76//30 39//30
f 79//31 40//31 78//31
f 34//32 66//32 69//32
f 38//17 37//17 34//17
f 34//33 36//33 35//33
f 35//33 36//33 33//33
f 33//34 63//34 35//34
f 63//35 68//35 35//35
f 42//36 80//36 83//36
f 28//37 27//37 42//37
f 32//38 43//38 84//38 60//38
f 31//39 44//39 43//39 32//39
f 44//40 31//40 59//40 87//40
f 19//41 20//41 24//41 28//41 42//41 83//41 84//41 43//41 44//41 87//41 47//41 30//41 25//41
f 82//42 81//42 55//42
f 49//9 51//9 55//9 81//9 80//9 60//9 62//9 61//9 59//9 50//9 57//9 54//9 48//9
f 45//43 46//43 49//43 48//43
f 46//44 52//44 51//44 49//44
f 48//45 54//45 53//45 45//45
f 52//46 56//46 55//46 51//46
f 81//47 82//47 80//47
f 47//15 58//15 57//15 50//15
f 54//48 57//48 58//48 53//48
f 65//49 73//49 67//49
f 70//50 69//50 65//50
f 73//51 75//51 77//51
f 73//52 74//52 67//52
f 71//53 66//53 72//53
f 71//51 75//51 73//51
f 73//54 77//54 74//54
f 76//55 75//55 71//55
f 72//56 76//56 71//56
f 66//57 71//57 65//57
f 68//58 67//58 74//58
f 77//59 78//59 74//59
f 77//60 78//60 79//60 76//60 75//60
f 75//61 79//61 77//61
f 79//62 75//62 76//62
f 79//63 78//63 77//63
f 65//64 69//64 66//64
f 73//49 65//49 71//49
f 65//65 67//65 70//65
f 67//65 64//65 70//65
f 64//66 67//66 63//66
f 63//67 67//67 68//67
f 82//68 83//68 80//68
f 56//37 82//37 55//37
f 62//69 60//69 84//69 85//69
f 61//70 62//70 85//70 86//70
f 86//71 87//71 59//71 61//71
f 45//72 53//72 58//72 47//72 87//72 86//72 85//72 84//72 83//72 82//72 56//72 52//72 46//72
