# Blender v2.79 (sub 0) OBJ File: 'pillar.blend'
# www.blender.org
mtllib pillar.mtl
o Cube.001
v -0.000000 0.072046 0.691586
v -0.000000 0.548511 0.554513
v -0.000000 0.310278 0.623050
v -0.000000 0.786743 0.485977
v 0.158339 0.679395 0.532837
v 0.079169 0.792627 0.492273
v 0.395848 0.339697 0.654529
v 0.237509 0.566162 0.573401
v 0.125000 0.949552 0.520245
v 0.624999 1.124323 0.794391
v 0.375000 1.036937 0.657318
v -0.000000 1.280633 0.588782
v -0.000000 1.093246 0.520245
v -0.000000 1.468020 0.657318
v -0.000000 0.999553 0.485977
v -0.000000 1.186940 0.554513
v -0.000000 1.561713 0.691586
v -0.250000 0.929395 0.588781
v -0.750000 0.976465 0.862927
v -0.125000 0.917627 0.520245
v -0.375000 0.941162 0.657318
v -0.312500 0.935278 0.623050
v -0.187500 0.923511 0.554513
v -0.687500 0.970581 0.828659
v -0.328046 0.452930 0.677415
v -0.492068 0.226465 0.790268
v -0.246034 0.566162 0.620988
v -0.082012 0.792627 0.508135
v -0.287040 0.509546 0.649202
v -0.451062 0.283081 0.762054
v -0.123017 0.736011 0.536348
v -0.205029 0.622778 0.592775
v 0.039585 0.849243 0.471991
v 0.118754 0.736011 0.512555
v 0.435433 0.283081 0.674811
v 0.277094 0.509546 0.593683
v 0.562500 1.102476 0.760123
v 0.312500 1.015091 0.623050
v 0.187500 0.971398 0.554513
v -0.000000 0.727185 0.503111
v -0.000000 0.131604 0.674452
v -0.000000 0.608069 0.537379
v -0.000000 0.369836 0.605916
v -0.281250 0.932337 0.605916
vn -0.4759 -0.0177 0.8793
vn -0.0965 0.2752 0.9565
vn 0.2692 0.2663 0.9256
vn 0.4851 0.0825 0.8706
vn -0.3673 -0.3195 0.8735
vn 0.4346 -0.3094 0.8458
usemtl Material.001
s off
f 5//1 39//1 9//1 34//1
f 42//2 2//2 5//2 34//2
f 2//3 42//3 32//3 27//3
f 41//2 1//2 35//2 7//2
f 1//3 41//3 30//3 26//3
f 19//4 26//4 30//4 24//4
f 13//5 15//5 9//5 39//5
f 32//4 18//4 44//4 27//4
f 29//4 22//4 21//4 25//4
f 22//6 14//6 17//6 21//6
f 14//5 37//5 10//5 17//5
f 37//1 7//1 35//1 10//1
f 25//3 3//3 43//3 29//3
f 18//6 16//6 12//6 44//6
f 16//5 38//5 11//5 12//5
f 38//1 8//1 36//1 11//1
f 36//2 8//2 43//2 3//2
f 31//4 28//4 20//4 23//4
f 31//3 40//3 4//3 28//3
f 6//2 33//2 4//2 40//2
f 15//6 13//6 23//6 20//6
o Cube
v 1.562412 -1.000000 -1.210943
v 1.000000 -1.000000 0.692930
v -1.000000 -1.000000 0.733726
v -1.000000 -1.000000 -0.630730
v 0.662737 1.646647 -0.692575
v 0.999999 1.255400 1.000001
v -1.000000 1.000000 1.000000
v -0.599806 0.613946 -1.000000
v 1.000000 -1.000000 0.000000
v 0.000000 -1.000000 -1.000000
v 1.000000 0.561790 -1.000000
v 0.000000 -1.000000 1.000000
v 0.633357 0.000000 0.776221
v -1.000000 -1.000000 -0.000000
v -0.656091 0.000000 0.903121
v -0.668176 0.000000 -1.000000
v 0.578498 2.890249 0.117262
v 0.000000 1.000000 -0.692546
v -0.000001 2.404954 1.000000
v -1.000000 0.571463 -0.000000
v 0.000000 0.000000 -1.000000
v -1.000000 -0.320257 -0.000000
v -0.000000 0.905859 0.451709
v 1.000000 0.000000 0.000000
v -0.000000 2.890249 0.000000
v 0.000000 -1.000000 -0.000000
v -0.000000 0.072046 0.691586
v -0.000000 0.548511 0.554513
v -0.000000 0.310278 0.623050
v -0.000000 0.786743 0.485977
v 0.158339 0.679395 0.532837
v 0.079169 0.792627 0.492273
v 0.395848 0.339697 0.654529
v 0.237509 0.566162 0.573401
v 0.125000 0.949552 0.520245
v 0.624999 1.124323 0.794391
v 0.375000 1.036937 0.657318
v -0.000000 1.280633 0.588782
v -0.000000 1.093246 0.520245
v -0.000000 1.468020 0.657318
v -0.000000 0.999553 0.485977
v -0.000000 1.186940 0.554513
v -0.000000 1.561713 0.691586
v -0.250000 0.929395 0.588781
v -0.750000 0.976465 0.862927
v -0.125000 0.917627 0.520245
v -0.375000 0.941162 0.657318
v -0.312500 0.935278 0.623050
v -0.187500 0.923511 0.554513
v -0.687500 0.970581 0.828659
v -0.328046 0.452930 0.677415
v -0.492068 0.226465 0.790268
v -0.246034 0.566162 0.620988
v -0.082012 0.792627 0.508135
v -0.287040 0.509546 0.649202
v -0.451062 0.283081 0.762054
v -0.123017 0.736011 0.536348
v -0.205029 0.622778 0.592775
v 0.039585 0.849243 0.471991
v 0.118754 0.736011 0.512555
v 0.435433 0.283081 0.674811
v 0.277094 0.509546 0.593683
v 0.562500 1.102476 0.760123
v 0.312500 1.015091 0.623050
v 0.187500 0.971398 0.554513
v -0.000000 0.727185 0.503111
v -0.000000 0.131604 0.674452
v -0.000000 0.608069 0.537379
v -0.000000 0.369836 0.605916
v -0.281250 0.932337 0.605916
vn 0.0000 -1.0000 0.0000
vn 0.9389 0.3442 0.0000
vn 0.9042 -0.0000 0.4271
vn 0.8560 -0.3221 0.4043
vn -0.9315 -0.3342 0.1432
vn -0.9345 -0.0000 0.3559
vn -1.0000 -0.0000 -0.0000
vn -0.1338 0.0000 -0.9910
vn -0.0626 0.1114 -0.9918
vn 0.8757 0.2604 0.4067
vn 1.0000 0.0000 0.0000
vn 0.9558 0.2563 0.1440
vn -0.2030 0.2080 -0.9568
vn -0.1629 0.2900 -0.9431
vn 0.2515 0.3330 -0.9088
vn -0.9250 0.1030 -0.3658
vn -0.9491 0.0000 -0.3149
vn -0.9442 0.2241 -0.2415
vn -0.3375 -0.2255 -0.9139
vn 0.0000 0.0000 -1.0000
vn 0.1808 0.1767 -0.9675
vn -0.8665 0.3737 -0.3309
vn -0.9053 0.3904 -0.1673
vn -0.7842 0.5582 0.2709
vn -0.0882 0.8962 0.4349
vn 0.1664 0.5460 -0.8211
vn 0.9810 0.1482 -0.1255
vn 0.9709 0.1492 -0.1873
vn 0.5734 0.4988 0.6500
vn -0.3183 0.3261 -0.8901
vn -0.9456 0.3252 -0.0000
vn -0.2566 -0.0750 0.9636
vn 0.2934 0.0280 0.9556
vn 0.4851 0.0825 0.8706
vn 0.4346 -0.3094 0.8458
vn 0.2692 0.2663 0.9256
vn -0.0965 0.2752 0.9565
vn -0.4759 -0.0177 0.8793
vn -0.3673 -0.3195 0.8735
usemtl Material
s off
f 46//7 70//7 53//7
f 46//8 53//8 57//8
f 53//9 68//9 57//9
f 68//10 50//10 57//10
f 51//11 64//11 59//11
f 64//12 66//12 59//12
f 59//12 66//12 58//12
f 66//13 48//13 58//13
f 58//7 48//7 70//7
f 48//7 54//7 70//7
f 70//7 54//7 45//7
f 54//14 65//14 45//14
f 65//15 55//15 45//15
f 55//16 53//16 45//16
f 53//7 70//7 45//7
f 53//17 55//17 68//17
f 68//18 55//18 49//18
f 49//19 55//19 62//19
f 62//20 55//20 65//20
f 52//21 69//21 62//21
f 52//22 60//22 64//22
f 66//23 64//23 60//23
f 66//24 60//24 48//24
f 48//25 60//25 54//25
f 60//26 65//26 54//26
f 60//27 52//27 62//27 65//27
f 52//28 64//28 69//28
f 64//29 51//29 69//29
f 51//30 63//30 69//30
f 63//31 61//31 69//31
f 69//32 61//32 49//32
f 61//33 68//33 49//33
f 68//34 61//34 50//34
f 50//35 61//35 63//35
f 69//36 49//36 62//36
f 70//7 47//7 58//7
f 58//37 47//37 59//37
f 47//38 56//38 59//38
f 47//7 70//7 56//7
f 56//7 70//7 46//7
f 56//39 46//39 57//39
f 97//40 114//40 92//40 99//40
f 83//41 86//41 88//41 93//41
f 99//42 113//42 72//42 97//42
f 74//42 67//42 98//42
f 88//40 102//40 101//40 93//40
f 63//41 51//41 89//41 94//41 91//41 87//41
f 59//42 56//42 71//42 96//42
f 100//42 111//42 73//42 95//42
f 94//40 100//40 95//40 91//40
f 59//40 96//40 89//40 51//40
f 57//43 105//43 71//43 56//43
f 77//43 106//43 73//43 111//43
f 57//44 50//44 80//44 105//44
f 106//44 77//44 107//44 81//44
f 82//45 81//45 107//45 84//45
f 82//41 84//41 92//41 114//41
f 63//45 87//45 80//45 50//45
f 103//43 67//43 74//43
f 103//44 76//44 104//44 79//44 67//44
f 85//45 67//45 79//45
f 67//41 85//41 90//41
f 67//40 90//40 98//40
f 78//43 75//43 72//43 113//43
f 75//44 78//44 108//44 109//44
f 83//45 109//45 108//45 86//45
f 102//42 112//42 110//42 101//42
f 104//43 76//43 110//43 112//43
