# Blender v2.79 (sub 0) OBJ File: 'skirt.blend'
# www.blender.org
mtllib skirt.mtl
o Cube.003
v 0.897678 0.977282 -0.454804
v 0.897677 0.977282 0.690703
v 0.781130 0.183474 0.766101
v 0.899870 0.683474 0.803113
v 0.781131 0.017672 -0.305483
v 0.945241 0.683474 -0.524497
v 0.643680 0.977282 0.006542
v 0.897677 0.977282 0.547515
v 0.783087 0.977282 -0.311615
v 0.448838 0.977282 0.690703
v -0.897678 0.977282 -0.454804
v -0.897677 0.977282 0.690703
v 0.000000 0.977282 -0.454804
v -0.781130 0.183474 0.766101
v 0.000000 0.183474 0.766100
v 0.000000 0.683474 0.803112
v -0.899870 0.683474 0.803113
v -0.781131 0.017672 -0.305483
v -0.945241 0.683474 -0.524497
v 0.000000 0.017672 -0.305483
v 0.000000 0.683474 -0.524497
v 0.000000 0.977282 -0.168427
v -0.643680 0.977282 0.006542
v -0.897677 0.977282 0.547515
v -0.783087 0.977282 -0.311615
v -0.448838 0.977282 0.690703
v 0.000000 0.830378 0.746907
v 0.000000 0.977282 0.475920
vn -0.0000 -0.0738 0.9973
vn 0.0000 0.2308 -0.9730
vn 0.0000 1.0000 -0.0000
vn 0.9724 -0.2306 0.0343
vn 0.0000 -0.3125 -0.9499
vn -0.0000 0.3573 0.9340
vn 0.9962 0.0857 0.0183
vn -0.2224 0.8571 0.4647
vn -0.9724 -0.2306 0.0343
vn -0.9962 0.0857 0.0183
vn 0.2224 0.8571 0.4647
usemtl Material
s off
f 16//1 15//1 3//1 4//1
f 1//2 6//2 21//2 13//2
f 22//3 28//3 10//3 2//3 7//3
f 4//4 3//4 5//4 6//4
f 6//5 5//5 20//5 21//5
f 4//6 2//6 10//6 27//6 16//6
f 8//3 1//3 9//3
f 13//3 9//3 1//3
f 1//7 2//7 4//7 6//7
f 27//8 10//8 28//8
f 16//1 17//1 14//1 15//1
f 11//2 13//2 21//2 19//2
f 22//3 23//3 12//3 26//3 28//3
f 17//9 19//9 18//9 14//9
f 19//5 21//5 20//5 18//5
f 17//6 16//6 27//6 26//6 12//6
f 24//3 25//3 11//3
f 13//3 11//3 25//3
f 11//10 19//10 17//10 12//10
f 27//11 28//11 26//11
o Cube.002
v 0.758454 -0.816526 -0.156573
v 0.758454 -0.816526 0.614766
v 0.781130 0.183474 0.766101
v 0.781131 0.017672 -0.305483
v -0.758454 -0.816526 -0.156573
v -0.758454 -0.816526 0.614766
v 0.000000 -0.816526 0.614766
v 0.000000 -0.816526 -0.156573
v -0.781130 0.183474 0.766101
v 0.000000 0.183474 0.766100
v -0.781131 0.017672 -0.305483
v 0.000000 0.017672 -0.305483
vn 0.0000 -1.0000 0.0000
vn -0.0000 -0.1496 0.9887
vn 0.9997 -0.0247 0.0022
vn 0.0000 -0.1757 -0.9844
vn -0.9997 -0.0247 0.0022
usemtl Material
s off
f 29//12 30//12 35//12 36//12
f 35//13 30//13 31//13 38//13
f 29//14 32//14 31//14 30//14
f 36//15 40//15 32//15 29//15
f 33//12 36//12 35//12 34//12
f 35//13 38//13 37//13 34//13
f 33//16 34//16 37//16 39//16
f 36//15 33//15 39//15 40//15
o Cube.001
v 0.897677 0.977282 0.690703
v 0.643680 0.977282 0.006542
v 0.897677 0.977282 0.547515
v 0.783087 0.977282 -0.311615
v 0.783087 1.185590 -0.311615
v 0.643680 1.159345 0.006542
v 0.783087 1.159345 -0.311615
v 0.897677 1.039732 0.690703
v 0.643680 1.141105 0.006542
v 0.897677 1.039732 0.547515
v 0.783087 1.141105 -0.311615
v -0.897677 0.977282 0.690703
v 0.000000 0.977282 -0.454804
v 0.000000 0.977282 -0.168427
v -0.643680 0.977282 0.006542
v -0.897677 0.977282 0.547515
v -0.783087 0.977282 -0.311615
v 0.000000 1.233023 -0.454804
v 0.000000 1.233023 -0.168427
v -0.783087 1.185590 -0.311615
v 0.000000 1.185115 -0.168427
v -0.643680 1.159345 0.006542
v -0.783087 1.159345 -0.311615
v -0.897677 1.039732 0.690703
v -0.643680 1.141105 0.006542
v -0.897677 1.039732 0.547515
v -0.783087 1.141105 -0.311615
vn 0.9159 0.0000 0.4013
vn 0.0605 0.9982 0.0000
vn 0.1799 0.0000 -0.9837
vn 0.0357 0.9992 0.0157
vn -0.2623 0.0000 0.9650
vn 0.2354 0.9693 0.0711
vn 0.9912 0.0000 -0.1322
vn 1.0000 0.0000 0.0000
vn -0.9375 0.0000 0.3480
vn 0.1799 0.0000 0.9837
vn -0.9159 0.0000 0.4013
vn -0.0605 0.9982 0.0000
vn -0.1799 0.0000 -0.9837
vn -0.0357 0.9992 0.0157
vn 0.2623 0.0000 0.9650
vn -0.2354 0.9693 0.0711
vn -0.9912 0.0000 -0.1322
vn -1.0000 0.0000 0.0000
vn 0.9375 0.0000 0.3480
vn -0.1799 0.0000 0.9837
usemtl Material
s off
f 47//17 46//17 49//17 51//17
f 58//18 59//18 45//18
f 53//19 58//19 45//19 44//19
f 46//20 47//20 61//20
f 54//21 42//21 46//21 61//21
f 50//22 51//22 49//22 48//22
f 43//23 44//23 51//23 50//23
f 41//24 43//24 50//24 48//24
f 42//25 41//25 48//25 49//25
f 61//26 47//26 45//26 59//26
f 63//27 67//27 65//27 62//27
f 58//28 60//28 59//28
f 53//29 57//29 60//29 58//29
f 62//30 61//30 63//30
f 54//31 61//31 62//31 55//31
f 66//32 64//32 65//32 67//32
f 56//33 66//33 67//33 57//33
f 52//34 64//34 66//34 56//34
f 55//35 65//35 64//35 52//35
f 61//36 59//36 60//36 63//36
l 54 44
l 42 44
l 54 59
l 44 47
l 54 57
l 55 57
l 57 63
