# Blender v2.79 (sub 0) OBJ File: 'untitled.blend'
# www.blender.org
mtllib skull.mtl
o Cube
v 1.398227 -0.759166 -1.000000
v 0.854748 -0.759166 1.000000
v 1.602011 0.888876 -0.999999
v 1.602010 1.044578 1.000001
v 1.201508 0.018568 -1.000000
v 1.201508 0.518568 -1.000000
v 0.801005 0.768568 -1.000000
v 0.400503 0.518568 -1.000000
v 0.801005 -0.231432 -1.000000
v 0.400503 0.018568 -1.000000
v 0.600754 0.018568 -0.250848
v 0.600754 0.518568 -0.250848
v 1.001257 0.018568 -0.250848
v 1.001257 0.518568 -0.250848
v -1.398227 -0.759166 -1.000000
v -0.854748 -0.759166 1.000000
v 0.000000 -0.759166 1.000000
v 0.000000 -0.759166 -1.000000
v -1.602011 0.888876 -0.999999
v -1.602010 1.044578 1.000001
v 0.000000 1.268568 1.000000
v 0.000000 1.325784 -1.000000
v -1.201508 0.018568 -1.000000
v -1.201508 0.518568 -1.000000
v -0.801005 0.768568 -1.000000
v -0.400503 0.518568 -1.000000
v -0.801005 -0.231432 -1.000000
v -0.400503 0.018568 -1.000000
v -0.600754 0.018568 -0.250848
v -0.600754 0.518568 -0.250848
v -1.001257 0.018568 -0.250848
v -1.001257 0.518568 -0.250848
vn 0.2020 0.9791 -0.0241
vn -0.0000 -0.0000 1.0000
vn 0.0000 0.0000 -1.0000
vn 0.5243 0.8399 -0.1401
vn 0.9661 0.0000 -0.2582
vn 0.5243 -0.8399 -0.1401
vn 0.0000 0.9486 -0.3165
vn -0.5243 0.8399 -0.1401
vn -0.9661 0.0000 -0.2582
vn -0.5243 -0.8399 -0.1401
vn 0.0000 -1.0000 -0.0000
vn 0.9582 -0.1185 0.2604
vn 0.0000 -0.9486 -0.3166
vn 0.9234 -0.3826 0.0298
vn -0.2020 0.9791 -0.0241
vn -0.9582 -0.1185 0.2604
vn -0.9234 -0.3826 0.0298
usemtl Material
s off
f 3//1 22//1 21//1 4//1
f 4//2 21//2 17//2 2//2
f 14//3 13//3 11//3 12//3
f 11//4 9//4 10//4
f 10//5 8//5 12//5 11//5
f 7//6 12//6 8//6
f 9//7 11//7 13//7
f 5//8 9//8 13//8
f 14//9 6//9 5//9 13//9
f 7//10 6//10 14//10
f 17//11 18//11 1//11 2//11
f 3//12 2//12 1//12
f 7//13 14//13 12//13
f 10//3 9//3 5//3 1//3 18//3
f 3//3 1//3 5//3 6//3
f 10//3 18//3 22//3 8//3
f 3//3 6//3 7//3 8//3 22//3
f 2//14 3//14 4//14
f 19//15 20//15 21//15 22//15
f 20//2 16//2 17//2 21//2
f 32//3 30//3 29//3 31//3
f 29//8 28//8 27//8
f 28//9 29//9 30//9 26//9
f 25//10 26//10 30//10
f 27//7 31//7 29//7
f 23//4 31//4 27//4
f 32//5 31//5 23//5 24//5
f 25//6 32//6 24//6
f 17//11 16//11 15//11 18//11
f 19//16 15//16 16//16
f 25//13 30//13 32//13
f 28//3 18//3 15//3 23//3 27//3
f 19//3 24//3 23//3 15//3
f 28//3 26//3 22//3 18//3
f 19//3 22//3 26//3 25//3 24//3
f 16//17 20//17 19//17
