# Blender v2.79 (sub 0) OBJ File: 'wind.blend'
# www.blender.org
mtllib wind.mtl
o Cube
v 0.219209 0.915740 -1.383199
v 0.005887 0.875915 2.472868
v 0.008843 1.131467 -1.383199
v 0.091021 1.358968 0.707742
v 0.219209 -0.235970 0.544834
v 0.219209 -0.082274 -0.419182
v 0.219209 0.319972 1.508852
v 0.219209 0.723127 1.857696
v 0.219209 0.250092 -0.901191
v 0.219209 0.254145 1.026843
v 0.219209 0.079446 0.062826
v 0.219209 0.965175 -0.301157
v -0.219209 0.915740 -1.383199
v -0.005887 0.875915 2.472868
v 0.000000 0.631967 2.472868
v 0.000000 -0.172526 -1.383200
v -0.008843 1.131467 -1.383199
v -0.091021 1.358968 0.707742
v 0.000000 1.421686 1.096477
v 0.000000 1.404286 -0.585072
v -0.219209 -0.235970 0.544834
v -0.219209 -0.082274 -0.419182
v -0.219209 0.319972 1.508852
v 0.000000 -0.479917 0.544834
v -0.219209 0.723127 1.857696
v -0.219209 0.250092 -0.901191
v -0.219209 0.254145 1.026843
v -0.219209 0.079446 0.062826
v -0.219209 0.965175 -0.301157
v 0.000000 -0.326222 -0.419183
v 0.000000 0.076025 1.508851
v 0.000000 0.006145 -0.901191
v 0.000000 0.010197 1.026843
v 0.000000 -0.164501 0.062826
v 0.000000 0.479179 1.857696
vn 0.9927 0.0697 0.0989
vn 0.5419 0.8404 -0.0087
vn 0.9919 0.0890 -0.0905
vn 0.9091 0.3885 0.1502
vn 0.8547 0.4888 0.1750
vn -0.9632 0.0065 -0.2686
vn 0.5887 -0.5290 0.6113
vn 0.9937 0.1109 -0.0151
vn 0.8785 -0.4053 0.2530
vn 0.9951 0.0649 -0.0750
vn 1.0000 0.0000 0.0000
vn 0.7156 0.6978 -0.0319
vn 0.7407 -0.6656 0.0909
vn 0.6152 -0.5528 0.5621
vn 0.6815 -0.6124 -0.4007
vn 0.7258 -0.6522 0.2188
vn 0.6755 -0.6070 -0.4186
vn 0.9383 -0.3088 -0.1560
vn 0.9059 0.4205 -0.0490
vn 0.9171 0.3803 -0.1198
vn -0.9927 0.0697 0.0989
vn -0.5419 0.8404 -0.0087
vn -0.9919 0.0890 -0.0905
vn -0.9091 0.3885 0.1502
vn -0.8547 0.4888 0.1750
vn 0.9632 0.0065 -0.2686
vn -0.5887 -0.5290 0.6113
vn -0.9937 0.1109 -0.0151
vn -0.8785 -0.4053 0.2530
vn -0.9951 0.0649 -0.0750
vn -1.0000 0.0000 0.0000
vn -0.7156 0.6978 -0.0319
vn -0.7407 -0.6656 0.0909
vn -0.6152 -0.5528 0.5621
vn -0.6815 -0.6124 -0.4007
vn -0.7258 -0.6522 0.2188
vn -0.6755 -0.6070 -0.4186
vn -0.9383 -0.3088 -0.1560
vn -0.9059 0.4205 -0.0490
vn -0.9171 0.3803 -0.1198
usemtl Material
s off
f 12//1 4//1 5//1
f 19//2 4//2 20//2
f 10//3 5//3 4//3
f 4//4 19//4 2//4
f 2//5 8//5 4//5
f 3//6 1//6 16//6 20//6
f 7//7 8//7 35//7 31//7
f 7//8 10//8 4//8
f 8//9 2//9 15//9 35//9
f 8//10 7//10 4//10
f 5//11 11//11 12//11
f 11//11 6//11 12//11
f 6//11 9//11 12//11
f 9//11 1//11 12//11
f 3//12 12//12 1//12
f 10//13 7//13 31//13 33//13
f 33//14 24//14 5//14 10//14
f 11//15 5//15 24//15 34//15
f 6//16 11//16 34//16 30//16
f 9//17 6//17 30//17 32//17
f 32//18 16//18 1//18 9//18
f 4//19 12//19 20//19
f 20//20 12//20 3//20
f 29//21 21//21 18//21
f 19//22 20//22 18//22
f 27//23 18//23 21//23
f 18//24 14//24 19//24
f 14//25 18//25 25//25
f 17//26 20//26 16//26 13//26
f 23//27 31//27 35//27 25//27
f 23//28 18//28 27//28
f 25//29 35//29 15//29 14//29
f 25//30 18//30 23//30
f 21//31 29//31 28//31
f 28//31 29//31 22//31
f 22//31 29//31 26//31
f 26//31 29//31 13//31
f 17//32 13//32 29//32
f 27//33 33//33 31//33 23//33
f 33//34 27//34 21//34 24//34
f 28//35 34//35 24//35 21//35
f 22//36 30//36 34//36 28//36
f 26//37 32//37 30//37 22//37
f 32//38 26//38 13//38 16//38
f 18//39 20//39 29//39
f 20//40 17//40 29//40
